<?xml version="1.0" encoding="UTF-8" standalone="no"?><!DOCTYPE svg PUBLIC "-//W3C//DTD SVG 1.1//EN" "http://www.w3.org/Graphics/SVG/1.1/DTD/svg11.dtd"><svg width="100%" height="100%" viewBox="0 0 3840 2160" version="1.1" xmlns="http://www.w3.org/2000/svg" xmlns:xlink="http://www.w3.org/1999/xlink" xml:space="preserve" xmlns:serif="http://www.serif.com/" style="fill-rule:evenodd;clip-rule:evenodd;stroke-linejoin:round;stroke-miterlimit:1.41421;"><rect x="0" y="0" width="3840" height="2160" style="fill:#5ddbd3;"/><path d="M1318.03,917.971c105.083,-139.94 272.399,-230.531 460.706,-230.531c226.612,0 422.823,131.194 516.76,321.707c193.281,-175.941 450.113,-283.254 731.813,-283.254c600.353,0 1087.76,487.41 1087.76,1087.76c0,600.353 -487.41,1087.76 -1087.76,1087.76c-280.757,0 -536.813,-106.596 -729.87,-281.49c-55.282,17.755 -114.208,27.343 -175.356,27.343c-246.369,0 -456.67,-155.651 -537.846,-373.897c-92.722,72.036 -202.258,123.435 -321.687,147.276c-146.587,236.306 -408.373,393.811 -706.656,393.811c-458.619,0 -830.96,-372.34 -830.96,-830.959c0,-250.253 110.864,-474.815 286.117,-627.212c-57.055,-45.879 -93.595,-116.252 -93.595,-195.093c0,-138.105 112.124,-250.229 250.229,-250.229c138.106,0 250.23,112.124 250.23,250.229c0,0.926 -0.005,1.85 -0.016,2.772c36.567,-6.122 73.939,-9.853 111.95,-11.025c141.698,-161.292 349.446,-263.16 580.8,-263.16c71.825,0 141.376,9.819 207.381,28.186Zm2572.47,1470.82c-158.467,179.846 -390.464,293.379 -648.77,293.379c-255.714,0 -485.646,-111.268 -643.979,-287.987c-60.769,89.955 -146.372,161.781 -246.939,205.606c181.678,156.515 418.117,251.185 676.494,251.185c359.833,0 677.119,-183.616 863.194,-462.183Zm-3426.63,-1149.18c-21.001,2.576 -41.735,6.022 -62.164,10.3c-35.832,94.376 -127.149,161.527 -234.027,161.527c-27.959,0 -54.854,-4.596 -79.969,-13.072c-171.458,137.403 -281.327,348.546 -281.327,585.147c0,413.663 335.842,749.505 749.505,749.505c244.468,0 461.757,-117.297 598.607,-298.634c-14.515,0.814 -29.136,1.226 -43.852,1.226c-98.156,0 -192.063,-18.337 -278.479,-51.769c-95.154,86.493 -221.525,139.237 -360.117,139.237c-295.662,0 -535.703,-240.04 -535.703,-535.703c0,-175.125 84.216,-330.737 214.324,-428.51c-0.667,-5.191 -1.01,-10.482 -1.01,-15.853c0,-68.172 55.347,-123.52 123.519,-123.52c36.237,0 68.85,15.638 91.453,40.527c21.507,-79.236 55.314,-153.433 99.24,-220.408Zm1475.67,576.635c-24.301,7.065 -49.262,12.569 -74.769,16.398c-34.914,155.365 -116.67,293.097 -229.633,397.562c66.189,205.762 259.292,354.829 486.936,354.829c42.643,0 84.075,-5.231 123.687,-15.086c-188.971,-195.233 -305.54,-460.962 -306.221,-753.703Zm714.028,473.443c138.289,172.049 350.455,282.245 588.156,282.245c416.28,0 754.245,-337.966 754.245,-754.245c0,-416.279 -337.965,-754.245 -754.245,-754.245c-214.385,0 -407.999,89.638 -545.376,233.448c0.271,4.183 0.408,8.402 0.408,12.653c0,87.11 -57.599,160.874 -136.757,185.25c-23.037,48.505 -41.048,99.853 -53.358,153.367c116.085,105 189.065,256.789 189.065,425.488c0,76.407 -14.971,149.346 -42.138,216.039Zm-394.589,-708.861c-64.749,97.665 -158.482,174.475 -268.889,218.121c-0.069,4.897 -0.103,9.803 -0.103,14.717c0,289.378 118.751,551.239 310.139,739.468c106.643,-39.663 196.523,-113.91 255.978,-209.081c-112.154,-145.816 -178.866,-328.361 -178.866,-526.364c0,-60.412 6.21,-119.385 18.027,-176.315c-41.734,-26.447 -87.551,-47.017 -136.286,-60.546Zm-2066.51,55.666c-103.056,82.245 -169.136,208.907 -169.136,350.881c0,247.649 201.059,448.708 448.708,448.708c102.568,0 197.145,-34.489 272.756,-92.492c-118.85,-64.043 -219.057,-158.298 -290.31,-272.451c-9.532,1.65 -19.334,2.51 -29.334,2.51c-94.444,0 -171.12,-76.676 -171.12,-171.12c0,-64.638 35.916,-120.953 88.863,-150.06c-3.413,-29.452 -5.167,-59.407 -5.167,-89.768c0,-4.833 0.045,-9.656 0.133,-14.468c-18.819,11.602 -40.979,18.298 -64.691,18.298c-30.836,0 -59.049,-11.325 -80.702,-30.038Zm980.881,-77.715c-135.23,-196.123 -361.444,-324.771 -617.468,-324.771c-21.007,0 -41.813,0.866 -62.385,2.564c-46.231,66.795 -81.903,141.444 -104.593,221.525c27.096,-4.229 54.862,-6.424 83.137,-6.424c3.44,0 6.873,0.032 10.299,0.097c0.436,-36.374 30.102,-65.769 66.578,-65.769c36.749,0 66.584,29.835 66.584,66.584c0,6.192 -0.847,12.189 -2.431,17.878c227.334,61.967 394.673,270.052 394.673,516.912c0,147.949 -60.106,281.969 -157.209,378.955c81.047,30.006 168.675,46.4 260.102,46.4c20.645,0 41.097,-0.836 61.324,-2.476c84.111,-121.141 133.426,-268.227 133.426,-426.741c0,-90.278 -15.996,-176.85 -45.306,-257.032c-19.028,40.346 -60.084,68.295 -107.617,68.295c-65.631,0 -118.915,-53.283 -118.915,-118.914c0,-65.631 53.284,-118.915 118.915,-118.915c7.125,0 14.105,0.628 20.886,1.832Zm130.417,-620.961c-61.629,-16.401 -126.367,-25.143 -193.13,-25.143c-217.013,0 -412.623,92.365 -549.628,239.894c456.263,2.762 825.832,374.035 825.832,830.944c0,149.189 -39.401,289.249 -108.357,410.331c110.546,-25.313 211.813,-75.083 297.793,-143.302c-18.072,-55.726 -27.839,-115.177 -27.839,-176.892c0,-93.414 22.377,-181.643 62.059,-259.614c-235.829,-72.035 -407.569,-291.515 -407.569,-550.79c0,-120.727 37.236,-232.826 100.839,-325.428Zm-493.168,755.201c-82.29,-94.548 -203.495,-154.351 -338.558,-154.351c-25.681,0 -50.86,2.162 -75.366,6.313c-0.515,32.88 -13.903,62.658 -35.343,84.51c-0.481,11.011 -0.723,22.083 -0.723,33.211c0,26.911 1.42,53.492 4.19,79.673c18.772,-7.086 39.114,-10.964 60.354,-10.964c94.443,0 171.119,76.676 171.119,171.119c0,76.045 -49.711,140.571 -118.382,162.825c70.584,110.622 169.374,201.535 286.201,262.572c95.881,-82.319 156.658,-204.394 156.658,-340.552c0,-34.989 -4.014,-69.048 -11.606,-101.742c-22.001,29.543 -57.196,48.692 -96.828,48.692c-66.593,0 -120.658,-54.066 -120.658,-120.659c0,-66.02 53.138,-119.727 118.942,-120.647Zm1682.87,29.237c-3.954,31.258 -5.992,63.109 -5.992,95.433c0,151.624 44.838,292.859 121.966,411.157c15.596,-48.955 24.014,-101.101 24.014,-155.196c0,-136.038 -53.234,-259.74 -139.988,-351.394Zm-820.656,107.048c-39.61,72.615 -62.126,155.872 -62.126,244.346c0,45.624 5.987,89.861 17.22,131.967c103.375,-98.528 178.689,-226.243 212.661,-369.864c-20.319,2.174 -40.952,3.289 -61.843,3.289c-36.176,0 -71.577,-3.344 -105.912,-9.738Zm-1323.13,-30.562c-32.036,23.344 -52.872,61.152 -52.872,103.788c0,70.833 57.507,128.34 128.34,128.34c1.938,0 3.867,-0.043 5.785,-0.129c-38.73,-71.318 -66.561,-149.398 -81.253,-231.999Zm105.493,228.589c56.369,-13.532 98.314,-64.306 98.314,-124.801c0,-70.832 -57.507,-128.339 -128.339,-128.339c-19.44,0 -37.876,4.331 -54.394,12.081c14.312,86.191 43.343,167.435 84.419,241.059Zm2553.32,-549.921c151.018,0 273.626,122.608 273.626,273.627c0,151.018 -122.608,273.626 -273.626,273.626c-151.019,0 -273.627,-122.608 -273.627,-273.626c0,-151.019 122.608,-273.627 273.627,-273.627Zm0,68.407c113.263,0 205.219,91.956 205.219,205.22c0,113.263 -91.956,205.219 -205.219,205.219c-113.264,0 -205.22,-91.956 -205.22,-205.219c0,-113.264 91.956,-205.22 205.22,-205.22Zm-2196.18,237.684c16.649,0 30.165,13.516 30.165,30.165c0,16.648 -13.516,30.165 -30.165,30.165c-16.648,0 -30.164,-13.517 -30.164,-30.165c0,-16.649 13.516,-30.165 30.164,-30.165Zm387.803,-183.023c-13.789,-8.74 -30.135,-13.802 -47.654,-13.802c-49.223,0 -89.186,39.963 -89.186,89.186c0,49.223 39.963,89.186 89.186,89.186c47.657,0 86.633,-37.46 89.065,-84.516c-12.226,-27.599 -26.07,-54.323 -41.411,-80.054Zm660.023,33.962c-29.267,17.503 -56.642,37.848 -81.743,60.652l0.326,0.001c27.873,0 55.132,-2.647 81.541,-7.702c0.266,-8.197 0.399,-16.427 0.399,-24.689c0,-9.462 -0.175,-18.884 -0.523,-28.262Zm-416.292,-643.759c-60.611,74.357 -96.972,169.248 -96.972,272.565c0,210.751 151.295,386.443 351.104,424.297c44.582,-48.933 97.509,-90.133 156.521,-121.339c-32.531,-252.809 -191.137,-466.372 -410.653,-575.523Zm519.273,596.809c-28.021,9.168 -54.98,20.693 -80.642,34.34c0.706,13.535 1.064,27.162 1.064,40.872c0,6.559 -0.082,13.099 -0.245,19.62c23.155,-5.768 45.574,-13.407 67.085,-22.746c3.452,-24.295 7.707,-48.333 12.738,-72.086Zm126.056,-24.182c-24.176,1.537 -47.897,4.758 -71.048,9.546c-4.515,18.964 -8.509,38.129 -11.966,57.479c30.39,-18.881 58.268,-41.429 83.014,-67.025Zm246.931,-155.19c-10.66,41.069 -25.744,80.363 -44.712,117.343c42.12,13.012 82.173,30.75 119.54,52.592c8.363,-29.006 18.206,-57.388 29.441,-85.059c-44.018,-15.03 -80.924,-45.471 -104.269,-84.876Zm-148.886,-285.194c-58.3,-169.549 -219.268,-291.525 -408.499,-291.525c-126.552,0 -240.464,54.554 -319.479,141.408c221.213,112.099 381.382,327.484 416.888,582.537c33.12,-15.758 67.985,-28.434 104.222,-37.657c41.375,-146.438 112.676,-280.371 206.868,-394.763Zm1027.07,228.19c46.376,0 84.027,37.651 84.027,84.027c0,46.376 -37.651,84.028 -84.027,84.028c-46.377,0 -84.028,-37.652 -84.028,-84.028c0,-46.376 37.651,-84.027 84.028,-84.027Zm-1011.02,-167.296c-73.346,95.777 -130.382,204.691 -166.942,322.577c27.974,-4.201 56.607,-6.378 85.745,-6.378c5.888,0 11.756,0.089 17.602,0.266c44.812,-68.063 70.898,-149.528 70.898,-237.037c0,-27.13 -2.508,-53.679 -7.303,-79.428Zm436.555,13.579c-32.467,-39.565 -81.739,-64.823 -136.864,-64.823c-63.418,0 -119.09,33.43 -150.338,83.615c1.257,15.521 1.899,31.215 1.899,47.057c0,41.11 -4.318,81.22 -12.524,119.9c20.282,44.242 58.275,78.703 104.88,94.284c45.44,-105.896 111.432,-200.918 192.947,-280.033Zm40.033,117.317c-42.739,47.705 -79.499,100.875 -109.096,158.329c62.566,-26.003 107.043,-86.89 109.096,-158.329Zm-1097.16,4.304c25.658,0 46.489,20.831 46.489,46.489c0,25.658 -20.831,46.489 -46.489,46.489c-25.658,0 -46.489,-20.831 -46.489,-46.489c0,-25.658 20.831,-46.489 46.489,-46.489Zm-1263.79,-46.712c-57.128,19.051 -111.205,44.798 -161.299,76.308c3.335,0.177 6.693,0.267 10.071,0.267c62.018,0 117.05,-30.148 151.228,-76.575Zm35.778,-95.185c0.441,-5.246 0.666,-10.553 0.666,-15.913c0,-103.579 -84.093,-187.672 -187.672,-187.672c-103.579,0 -187.672,84.093 -187.672,187.672c0,64.124 32.23,120.78 81.359,154.638c86.441,-64.156 185.749,-111.933 293.319,-138.725Zm3556.93,94.348c-182.568,-296.938 -510.477,-495.116 -884.307,-495.116c-274.793,0 -524.772,107.082 -710.451,281.758c16.054,42.038 27.319,86.433 33.129,132.517c35.473,-45.554 90.831,-74.876 152.984,-74.876c59.916,0 113.517,27.248 149.076,70.019c154.494,-144.245 361.857,-232.568 589.686,-232.568c270.027,0 511.303,124.071 669.883,318.266Z" style="fill:#fff;fill-opacity:0.2;"/></svg>