<?xml version="1.0" standalone="no"?>
<!DOCTYPE svg PUBLIC "-//W3C//DTD SVG 20010904//EN"
 "http://www.w3.org/TR/2001/REC-SVG-20010904/DTD/svg10.dtd">
<svg version="1.0" xmlns="http://www.w3.org/2000/svg"
 width="700.000000pt" height="700.000000pt" viewBox="0 0 700.000000 700.000000"
 preserveAspectRatio="xMidYMid meet">
<metadata>
Created by potrace 1.11, written by Peter Selinger 2001-2013
</metadata>
<g transform="translate(0.000000,700.000000) scale(0.100000,-0.100000)"
fill="#000000" stroke="none">
<path d="M3298 6996 c-1 -2 -45 -6 -95 -10 -51 -4 -98 -8 -105 -11 -7 -2 -42
-6 -78 -10 -204 -19 -534 -105 -806 -210 -116 -45 -362 -162 -449 -215 -27
-16 -57 -33 -65 -37 -8 -3 -53 -32 -100 -63 -377 -250 -649 -506 -910 -855
-182 -244 -291 -437 -435 -770 -78 -181 -164 -486 -205 -729 -22 -130 -24
-146 -37 -286 -15 -159 -8 -606 11 -707 2 -10 7 -43 10 -73 7 -62 12 -94 26
-165 6 -27 13 -61 15 -75 3 -14 7 -36 10 -50 13 -63 31 -121 39 -122 5 0 509
499 1120 1109 611 610 1134 1128 1161 1150 28 22 88 65 135 95 239 154 469
238 750 275 73 10 350 10 420 0 368 -49 681 -190 952 -429 l77 -68 1127 1126
c875 875 1120 1125 1098 1121 -40 -7 -62 -13 -152 -37 -74 -21 -533 -144 -732
-196 -52 -14 -133 -36 -180 -49 -47 -12 -139 -37 -205 -54 -66 -17 -136 -36
-155 -41 -19 -6 -92 -26 -161 -45 l-127 -35 -73 41 c-286 158 -630 285 -956
353 -102 22 -255 45 -403 62 -57 6 -516 15 -522 10z"/>
<path d="M1771 2902 c-18 -70 -37 -140 -42 -157 -24 -81 -49 -173 -53 -195 -3
-14 -17 -68 -31 -120 -15 -52 -29 -102 -30 -110 -2 -8 -58 -217 -125 -465 -67
-247 -123 -458 -126 -467 -7 -31 -12 -48 -64 -243 -62 -230 -57 -211 -70 -260
-9 -37 -8 -42 18 -63 63 -54 242 -192 249 -192 5 -1 24 -14 43 -30 19 -17 40
-30 46 -30 7 0 14 -3 16 -7 5 -12 158 -103 278 -166 242 -127 637 -272 854
-313 12 -2 32 -6 46 -9 88 -18 184 -35 226 -40 27 -4 60 -8 73 -10 122 -20
554 -27 726 -11 510 45 1071 224 1470 469 197 121 408 273 522 377 90 80 173
160 173 165 0 3 -277 282 -616 621 l-616 616 -26 -24 c-14 -12 -36 -33 -49
-45 -35 -34 -171 -135 -238 -177 -171 -109 -434 -210 -634 -241 -93 -15 -121
-17 -271 -20 -269 -5 -499 43 -755 158 -49 22 -97 46 -105 52 -8 7 -22 15 -32
18 -29 10 -181 118 -264 188 -237 198 -449 516 -531 796 -10 35 -20 63 -23 63
-3 0 -20 -57 -39 -128z"/>
</g>
</svg>
