<?xml version="1.0" encoding="UTF-8" standalone="no"?><!DOCTYPE svg PUBLIC "-//W3C//DTD SVG 1.1//EN" "http://www.w3.org/Graphics/SVG/1.1/DTD/svg11.dtd"><svg width="100%" height="100%" viewBox="0 0 3840 2160" version="1.1" xmlns="http://www.w3.org/2000/svg" xmlns:xlink="http://www.w3.org/1999/xlink" xml:space="preserve" xmlns:serif="http://www.serif.com/" style="fill-rule:evenodd;clip-rule:evenodd;stroke-linecap:round;stroke-linejoin:round;stroke-miterlimit:1.5;"><rect id="Artboard1" x="0" y="0" width="3840" height="2160" style="fill:none;"/><clipPath id="_clip1"><rect id="Artboard11" serif:id="Artboard1" x="0" y="0" width="3840" height="2160"/></clipPath><g clip-path="url(#_clip1)"><rect x="0" y="0" width="3840" height="2160" style="fill:url(#_Linear2);"/><circle cx="234.318" cy="1917.33" r="15" style="fill:#fff;fill-opacity:0.74902;"/><circle cx="652.148" cy="1767.04" r="15" style="fill:#fff;fill-opacity:0.74902;"/><circle cx="1343.35" cy="1652.84" r="15" style="fill:#fff;fill-opacity:0.74902;"/><circle cx="204.318" cy="1577.71" r="15" style="fill:#fff;fill-opacity:0.74902;"/><circle cx="1935" cy="1902.33" r="15" style="fill:#fff;fill-opacity:0.74902;"/><circle cx="2446.26" cy="1577.71" r="15" style="fill:#fff;fill-opacity:0.74902;"/><circle cx="1132.98" cy="2034.51" r="15" style="fill:#fff;fill-opacity:0.74902;"/><circle cx="3098.39" cy="1283.2" r="15" style="fill:#fff;fill-opacity:0.74902;"/><circle cx="2476.26" cy="2049.51" r="15" style="fill:#fff;fill-opacity:0.74902;"/><circle cx="1836.2" cy="1749.01" r="15" style="fill:#fff;fill-opacity:0.74902;"/><circle cx="1015.78" cy="1818.13" r="15" style="fill:#fff;fill-opacity:0.74902;"/><circle cx="3552.18" cy="1586.73" r="15" style="fill:#fff;fill-opacity:0.74902;"/><circle cx="2909.07" cy="1652.84" r="15" style="fill:#fff;fill-opacity:0.74902;"/><circle cx="3483.06" cy="1848.13" r="15" style="fill:#fff;fill-opacity:0.74902;"/><circle cx="2364.51" cy="1892.95" r="15" style="fill:#fff;fill-opacity:0.74902;"/><circle cx="3095.39" cy="2082.59" r="15" style="fill:#fff;fill-opacity:0.74902;"/><path d="M204.318,1577.71l447.83,189.329l-811.667,-36.063l363.837,-153.266Z" style="fill:#fff;fill-opacity:0.101961;stroke:#fff;stroke-opacity:0.4;stroke-width:10px;"/><path d="M652.148,1767.04l691.2,-114.198l-210.366,381.662l-480.834,-267.464Z" style="fill:#fff;fill-opacity:0.101961;stroke:#fff;stroke-opacity:0.4;stroke-width:10px;"/><path d="M1343.35,1652.84l492.855,96.166l98.797,153.319l-591.652,-249.485Z" style="fill:#fff;fill-opacity:0.101961;stroke:#fff;stroke-opacity:0.4;stroke-width:10px;"/><path d="M2446.26,1577.71l-511.262,324.616l-98.797,-153.319l610.059,-171.297Z" style="fill:#fff;fill-opacity:0.101961;stroke:#fff;stroke-opacity:0.4;stroke-width:10px;"/><path d="M2446.26,1577.71l652.132,-294.511l453.788,303.527l-1105.92,-9.016Z" style="fill:#fff;fill-opacity:0.101961;stroke:#fff;stroke-opacity:0.4;stroke-width:10px;"/><path d="M3552.18,1586.73l774.979,66.677l-133.866,248.923l-641.113,-315.6Z" style="fill:#fff;fill-opacity:0.101961;stroke:#fff;stroke-opacity:0.4;stroke-width:10px;"/><path d="M306.548,2304.98l345.6,-537.934l480.834,267.464l-826.434,270.47Z" style="fill:#fff;fill-opacity:0.101961;stroke:#fff;stroke-opacity:0.4;stroke-width:10px;"/><path d="M306.548,2304.98l-466.067,-573.997l811.667,36.063l-345.6,537.934Z" style="fill:#fff;fill-opacity:0.101961;stroke:#fff;stroke-opacity:0.4;stroke-width:10px;"/><path d="M1343.35,1652.84l-210.366,381.662l802.018,-132.177l-591.652,-249.485Z" style="fill:#fff;fill-opacity:0.101961;stroke:#fff;stroke-opacity:0.4;stroke-width:10px;"/><path d="M1935,1902.33l541.262,147.177l-30,-471.793l-511.262,324.616Z" style="fill:#fff;fill-opacity:0.101961;stroke:#fff;stroke-opacity:0.4;stroke-width:10px;"/><path d="M1761.07,2319.98l173.927,-417.647l-802.018,132.177l628.091,285.47Z" style="fill:#fff;fill-opacity:0.101961;stroke:#fff;stroke-opacity:0.4;stroke-width:10px;"/><path d="M1935,1902.33l-173.927,417.647l715.189,-270.47l-541.262,-147.177Z" style="fill:#fff;fill-opacity:0.101961;stroke:#fff;stroke-opacity:0.4;stroke-width:10px;"/><path d="M3095.39,2082.59l456.793,-495.861l641.113,315.6l-1097.91,180.261Z" style="fill:#fff;fill-opacity:0.101961;stroke:#fff;stroke-opacity:0.4;stroke-width:10px;"/><path d="M2446.26,1577.71l1105.92,9.016l-456.793,495.861l-649.127,-504.877Z" style="fill:#fff;fill-opacity:0.101961;stroke:#fff;stroke-opacity:0.4;stroke-width:10px;"/><path d="M2476.26,2049.51l619.127,33.084l-649.127,-504.877l30,471.793Z" style="fill:#fff;fill-opacity:0.101961;stroke:#fff;stroke-opacity:0.4;stroke-width:10px;"/><path d="M2598.46,2540.84l-122.196,-491.336l-715.189,270.47l837.385,220.866Z" style="fill:#fff;fill-opacity:0.101961;stroke:#fff;stroke-opacity:0.4;stroke-width:10px;"/><path d="M2598.46,2540.84l496.931,-458.252l-619.127,-33.084l122.196,491.336Z" style="fill:#fff;fill-opacity:0.101961;stroke:#fff;stroke-opacity:0.4;stroke-width:10px;"/><path d="M2829.1,2019.51l-464.586,-126.559l81.753,-315.234l382.833,441.793Z" style="fill:#fff;fill-opacity:0.0509804;stroke:#fff;stroke-opacity:0.4;stroke-width:10px;"/><path d="M1132.98,2034.51l-122.809,463.546l750.9,-178.076l-628.091,-285.47Z" style="fill:#fff;fill-opacity:0.101961;stroke:#fff;stroke-opacity:0.4;stroke-width:10px;"/><path d="M1132.98,2034.51l-122.809,463.546l-703.625,-193.076l826.434,-270.47Z" style="fill:#fff;fill-opacity:0.101961;stroke:#fff;stroke-opacity:0.4;stroke-width:10px;"/><path d="M3095.39,2082.59l638.429,267.386l-1135.36,190.866l496.931,-458.252Z" style="fill:#fff;fill-opacity:0.101961;stroke:#fff;stroke-opacity:0.4;stroke-width:10px;"/><path d="M3095.39,2082.59l638.429,267.386l459.477,-447.647l-1097.91,180.261Z" style="fill:#fff;fill-opacity:0.101961;stroke:#fff;stroke-opacity:0.4;stroke-width:10px;"/><path d="M2446.26,1577.71l462.803,75.131l189.329,-369.642l-652.132,294.511Z" style="fill:#fff;fill-opacity:0.0509804;stroke:#fff;stroke-opacity:0.4;stroke-width:10px;"/><path d="M2909.07,1652.84l189.329,-369.642l453.788,303.527l-643.117,66.115Z" style="fill:#fff;fill-opacity:0.0509804;stroke:#fff;stroke-opacity:0.4;stroke-width:10px;"/><path d="M1836.2,1749.01l610.059,-171.297l-81.753,315.234l-528.306,-143.937Z" style="fill:#fff;fill-opacity:0.0509804;stroke:#fff;stroke-opacity:0.4;stroke-width:10px;"/><path d="M2364.51,1892.95l81.753,-315.234l462.803,75.131l-544.556,240.103Z" style="fill:#fff;fill-opacity:0.0509804;stroke:#fff;stroke-opacity:0.4;stroke-width:10px;"/><circle cx="1588.8" cy="2096.15" r="15" style="fill:#fff;fill-opacity:0.74902;"/><circle cx="2829.1" cy="2019.51" r="15" style="fill:#fff;fill-opacity:0.74902;"/><circle cx="663.803" cy="2111.15" r="15" style="fill:#fff;fill-opacity:0.74902;"/><path d="M1588.8,2096.15l247.402,-347.142l528.306,143.937l-775.708,203.205Z" style="fill:#fff;fill-opacity:0.0509804;stroke:#fff;stroke-opacity:0.4;stroke-width:10px;"/><path d="M1343.35,1652.84l492.855,96.166l-247.402,347.142l-245.453,-443.308Z" style="fill:#fff;fill-opacity:0.0509804;stroke:#fff;stroke-opacity:0.4;stroke-width:10px;"/><path d="M1015.78,1818.13l327.569,-165.286l246.427,443.308l-573.996,-278.022Z" style="fill:#fff;fill-opacity:0.0509804;stroke:#fff;stroke-opacity:0.4;stroke-width:10px;"/><path d="M1343.35,1652.84l-327.569,165.286l-363.631,-51.088l691.2,-114.198Z" style="fill:#fff;fill-opacity:0.0509804;stroke:#fff;stroke-opacity:0.4;stroke-width:10px;"/><path d="M663.803,2111.15l-11.655,-344.11l363.631,51.088l-351.976,293.022Z" style="fill:#fff;fill-opacity:0.0509804;stroke:#fff;stroke-opacity:0.4;stroke-width:10px;"/><path d="M234.318,1917.33l417.83,-150.287l-447.83,-189.329l30,339.616Z" style="fill:#fff;fill-opacity:0.0509804;stroke:#fff;stroke-opacity:0.4;stroke-width:10px;"/><path d="M652.148,1767.04l11.655,344.11l-429.485,-193.823l417.83,-150.287Z" style="fill:#fff;fill-opacity:0.0509804;stroke:#fff;stroke-opacity:0.4;stroke-width:10px;"/><path d="M204.318,1577.71l30,339.616l-393.837,-186.35l363.837,-153.266Z" style="fill:#fff;fill-opacity:0.0509804;stroke:#fff;stroke-opacity:0.4;stroke-width:10px;"/><path d="M-159.519,1730.98l393.837,186.35l-326.798,402.647l-67.039,-588.997Z" style="fill:#fff;fill-opacity:0.0509804;stroke:#fff;stroke-opacity:0.4;stroke-width:10px;"/><path d="M234.318,1917.33l-326.798,402.647l756.283,-208.824l-429.485,-193.823Z" style="fill:#fff;fill-opacity:0.0509804;stroke:#fff;stroke-opacity:0.4;stroke-width:10px;"/><path d="M667.148,2111.15l348.631,-293.022l573.022,278.022l-921.653,15Z" style="fill:#fff;fill-opacity:0.0509804;stroke:#fff;stroke-opacity:0.4;stroke-width:10px;"/><path d="M2446.26,1577.71l462.803,75.131l-79.97,366.662l-382.833,-441.793Z" style="fill:#fff;fill-opacity:0.0509804;stroke:#fff;stroke-opacity:0.4;stroke-width:10px;"/><path d="M2909.07,1652.84l-79.97,366.662l653.967,-171.376l-573.997,-195.286Z" style="fill:#fff;fill-opacity:0.0509804;stroke:#fff;stroke-opacity:0.4;stroke-width:10px;"/><path d="M2909.07,1652.84l643.117,-66.115l-69.12,261.401l-573.997,-195.286Z" style="fill:#fff;fill-opacity:0.0509804;stroke:#fff;stroke-opacity:0.4;stroke-width:10px;"/><path d="M2364.51,1892.95l464.586,126.559l-613.044,270.47l148.458,-397.029" style="fill:#fff;fill-opacity:0.0509804;stroke:#fff;stroke-opacity:0.4;stroke-width:10px;"/><path d="M2829.1,2019.51l653.967,-171.376l250.756,501.846l-904.723,-330.47Z" style="fill:#fff;fill-opacity:0.0509804;stroke:#fff;stroke-opacity:0.4;stroke-width:10px;"/><path d="M3552.18,1586.73l774.979,66.677l-844.099,194.724l69.12,-261.401Z" style="fill:#fff;fill-opacity:0.0509804;stroke:#fff;stroke-opacity:0.4;stroke-width:10px;"/><path d="M3483.06,1848.13l844.099,-194.724l-266.555,506.594l-577.544,-311.87Z" style="fill:#fff;fill-opacity:0.0509804;stroke:#fff;stroke-opacity:0.4;stroke-width:10px;"/><path d="M3483.06,1848.13l577.544,311.87l-326.788,189.976l-250.756,-501.846Z" style="fill:#fff;fill-opacity:0.0509804;stroke:#fff;stroke-opacity:0.4;stroke-width:10px;"/><path d="M663.803,2111.15l346.37,386.9l578.628,-401.9l-924.998,15Z" style="fill:#fff;fill-opacity:0.0509804;stroke:#fff;stroke-opacity:0.4;stroke-width:10px;"/><path d="M1588.8,2096.15l172.272,223.824l-750.9,178.076l578.628,-401.9Z" style="fill:#fff;fill-opacity:0.0509804;stroke:#fff;stroke-opacity:0.4;stroke-width:10px;"/></g><path d="M306.548,2304.98l-564.165,-90.035l98.098,-483.962l466.067,573.997Z" style="fill:#fff;fill-opacity:0.101961;stroke:#fff;stroke-opacity:0.4;stroke-width:10px;"/><defs><linearGradient id="_Linear2" x1="0" y1="0" x2="1" y2="0" gradientUnits="userSpaceOnUse" gradientTransform="matrix(1.32262e-13,2160,-2160,1.32262e-13,1920,0)"><stop offset="0" style="stop-color:#10033a;stop-opacity:1"/><stop offset="1" style="stop-color:#23033a;stop-opacity:1"/></linearGradient></defs></svg>