<?xml version="1.0" encoding="UTF-8" standalone="no"?><!DOCTYPE svg PUBLIC "-//W3C//DTD SVG 1.1//EN" "http://www.w3.org/Graphics/SVG/1.1/DTD/svg11.dtd"><svg width="100%" height="100%" viewBox="0 0 1000 1000" version="1.1" xmlns="http://www.w3.org/2000/svg" xmlns:xlink="http://www.w3.org/1999/xlink" xml:space="preserve" xmlns:serif="http://www.serif.com/" style="fill-rule:evenodd;clip-rule:evenodd;stroke-linecap:round;stroke-linejoin:round;stroke-miterlimit:1.5;"><rect id="Artboard2" x="0" y="0" width="1000" height="1000" style="fill:none;"/><clipPath id="_clip1"><rect x="0" y="0" width="1000" height="1000"/></clipPath><g clip-path="url(#_clip1)"><rect x="0" y="0" width="1000" height="1000" style="fill:#5ddbd3;"/><g opacity="0.5"><path d="M566,434l-132,35.369l20.431,76.2l76.2,20.431l35.369,-132Z" style="fill:none;stroke:url(#_Radial2);stroke-width:1px;"/><path d="M572.6,427.4l-145.2,38.906l22.475,83.819l83.819,22.475l38.906,-145.2Z" style="fill:none;stroke:url(#_Radial3);stroke-width:1px;"/><path d="M579.86,420.14l-159.72,42.797l24.722,92.201l92.201,24.722l42.797,-159.72Z" style="fill:none;stroke:url(#_Radial4);stroke-width:1px;"/><path d="M587.846,412.154l-175.692,47.077l27.194,101.421l101.421,27.194l47.077,-175.692Z" style="fill:none;stroke:url(#_Radial5);stroke-width:1px;"/><path d="M596.631,403.369l-193.262,51.785l29.914,111.563l111.563,29.914l51.785,-193.262Z" style="fill:none;stroke:url(#_Radial6);stroke-width:1px;"/><path d="M606.294,393.706l-212.588,56.963l32.905,122.72l122.72,32.905l56.963,-212.588Z" style="fill:none;stroke:url(#_Radial7);stroke-width:1px;"/><path d="M616.923,383.077l-233.846,62.659l36.195,134.992l134.992,36.195l62.659,-233.846Z" style="fill:none;stroke:url(#_Radial8);stroke-width:1px;"/><path d="M628.615,371.385l-257.23,68.924l39.815,148.491l148.491,39.815l68.924,-257.23Z" style="fill:none;stroke:url(#_Radial9);stroke-width:1px;"/><path d="M641.477,358.523l-282.954,75.817l43.797,163.34l163.34,43.797l75.817,-282.954Z" style="fill:none;stroke:url(#_Radial10);stroke-width:1px;"/><path d="M655.625,344.375l-311.25,83.399l48.177,179.674l179.674,48.177l83.399,-311.25Z" style="fill:none;stroke:url(#_Radial11);stroke-width:1px;"/><path d="M671.187,328.813l-342.374,91.739l52.994,197.641l197.641,52.994l91.739,-342.374Z" style="fill:none;stroke:url(#_Radial12);stroke-width:1px;"/><path d="M688.306,311.694l-376.612,100.913l58.294,217.405l217.405,58.294l100.913,-376.612Z" style="fill:none;stroke:url(#_Radial13);stroke-width:1px;"/><path d="M707.136,292.864l-414.272,111.004l64.122,239.146l239.146,64.122l111.004,-414.272Z" style="fill:none;stroke:url(#_Radial14);stroke-width:1px;"/><path d="M727.85,272.15l-455.7,122.104l70.535,263.061l263.061,70.535l122.104,-455.7Z" style="fill:none;stroke:url(#_Radial15);stroke-width:1px;"/><path d="M750.635,249.365l-501.27,134.315l77.588,289.367l289.367,77.588l134.315,-501.27Z" style="fill:none;stroke:url(#_Radial16);stroke-width:1px;"/><path d="M775.698,224.302l-551.396,147.746l85.347,318.303l318.303,85.347l147.746,-551.396Z" style="fill:none;stroke:url(#_Radial17);stroke-width:1px;"/><path d="M803.268,196.732l-606.536,162.521l93.882,350.133l350.133,93.882l162.521,-606.536Z" style="fill:none;stroke:url(#_Radial18);stroke-width:1px;"/><path d="M833.595,166.405l-667.19,178.773l103.27,385.147l385.147,103.27l178.773,-667.19Z" style="fill:none;stroke:url(#_Radial19);stroke-width:1px;"/><path d="M866.955,133.045l-733.91,196.651l113.597,423.662l423.662,113.597l196.651,-733.91Z" style="fill:none;stroke:url(#_Radial20);stroke-width:1px;"/><path d="M903.65,96.35l-807.3,216.315l124.957,466.028l466.028,124.957l216.315,-807.3Z" style="fill:none;stroke:url(#_Radial21);stroke-width:1px;"/><path d="M944.015,55.985l-888.03,237.947l137.452,512.631l512.631,137.452l237.947,-888.03Z" style="fill:none;stroke:url(#_Radial22);stroke-width:1px;"/><path d="M988.416,11.584l-976.832,261.741l151.197,563.894l563.894,151.197l261.741,-976.832Z" style="fill:none;stroke:url(#_Radial23);stroke-width:1px;"/><path d="M1037.26,-37.258l-1074.52,287.916l166.317,620.283l620.283,166.317l287.916,-1074.52Z" style="fill:none;stroke:url(#_Radial24);stroke-width:1px;"/><path d="M1090.98,-90.984l-1181.97,316.707l182.949,682.312l682.312,182.949l316.707,-1181.97Z" style="fill:none;stroke:url(#_Radial25);stroke-width:1px;"/><path d="M1150.08,-150.082l-1300.16,348.378l201.244,750.542l750.542,201.244l348.378,-1300.16Z" style="fill:none;stroke:url(#_Radial26);stroke-width:1px;"/><path d="M1215.09,-215.091l-1430.18,383.216l221.369,825.597l825.597,221.369l383.216,-1430.18Z" style="fill:none;stroke:url(#_Radial27);stroke-width:1px;"/><path d="M1286.6,-286.6l-1573.2,421.538l243.506,908.156l908.156,243.506l421.538,-1573.2Z" style="fill:none;stroke:url(#_Radial28);stroke-width:1px;"/></g><path d="M465.359,465.359c-11.212,19.393 -8.522,44.64 8.06,61.222c16.593,16.593 41.823,19.285 61.221,8.064l-6.794,25.355l-69.272,-18.574l-18.574,-69.272l25.359,-6.795Zm79.786,-10.504l14.855,-14.855l-21.436,80l-11.35,-11.351c-9.904,9.904 -25.96,9.904 -35.863,0c-9.897,-9.896 -9.897,-25.966 0,-35.863c9.903,-9.903 25.959,-9.903 35.863,0l17.931,-17.931l0,0Zm14.855,-14.855l0,0l0,0l0,0Z" style="fill:#fff;fill-opacity:0.5;"/></g><defs><radialGradient id="_Radial2" cx="0" cy="0" r="1" gradientUnits="userSpaceOnUse" gradientTransform="matrix(-540,206,-206,-540,500,500)"><stop offset="0" style="stop-color:#fff;stop-opacity:0"/><stop offset="1" style="stop-color:#fff;stop-opacity:1"/></radialGradient><radialGradient id="_Radial3" cx="0" cy="0" r="1" gradientUnits="userSpaceOnUse" gradientTransform="matrix(-540,206,-206,-540,500,500)"><stop offset="0" style="stop-color:#fff;stop-opacity:0"/><stop offset="1" style="stop-color:#fff;stop-opacity:1"/></radialGradient><radialGradient id="_Radial4" cx="0" cy="0" r="1" gradientUnits="userSpaceOnUse" gradientTransform="matrix(-540,206,-206,-540,500,500)"><stop offset="0" style="stop-color:#fff;stop-opacity:0"/><stop offset="1" style="stop-color:#fff;stop-opacity:1"/></radialGradient><radialGradient id="_Radial5" cx="0" cy="0" r="1" gradientUnits="userSpaceOnUse" gradientTransform="matrix(-540,206,-206,-540,500,500)"><stop offset="0" style="stop-color:#fff;stop-opacity:0"/><stop offset="1" style="stop-color:#fff;stop-opacity:1"/></radialGradient><radialGradient id="_Radial6" cx="0" cy="0" r="1" gradientUnits="userSpaceOnUse" gradientTransform="matrix(-540,206,-206,-540,500,500)"><stop offset="0" style="stop-color:#fff;stop-opacity:0"/><stop offset="1" style="stop-color:#fff;stop-opacity:1"/></radialGradient><radialGradient id="_Radial7" cx="0" cy="0" r="1" gradientUnits="userSpaceOnUse" gradientTransform="matrix(-540,206,-206,-540,500,500)"><stop offset="0" style="stop-color:#fff;stop-opacity:0"/><stop offset="1" style="stop-color:#fff;stop-opacity:1"/></radialGradient><radialGradient id="_Radial8" cx="0" cy="0" r="1" gradientUnits="userSpaceOnUse" gradientTransform="matrix(-540,206,-206,-540,500,500)"><stop offset="0" style="stop-color:#fff;stop-opacity:0"/><stop offset="1" style="stop-color:#fff;stop-opacity:1"/></radialGradient><radialGradient id="_Radial9" cx="0" cy="0" r="1" gradientUnits="userSpaceOnUse" gradientTransform="matrix(-540,206,-206,-540,500,500)"><stop offset="0" style="stop-color:#fff;stop-opacity:0"/><stop offset="1" style="stop-color:#fff;stop-opacity:1"/></radialGradient><radialGradient id="_Radial10" cx="0" cy="0" r="1" gradientUnits="userSpaceOnUse" gradientTransform="matrix(-540,206,-206,-540,500,500)"><stop offset="0" style="stop-color:#fff;stop-opacity:0"/><stop offset="1" style="stop-color:#fff;stop-opacity:1"/></radialGradient><radialGradient id="_Radial11" cx="0" cy="0" r="1" gradientUnits="userSpaceOnUse" gradientTransform="matrix(-540,206,-206,-540,500,500)"><stop offset="0" style="stop-color:#fff;stop-opacity:0"/><stop offset="1" style="stop-color:#fff;stop-opacity:1"/></radialGradient><radialGradient id="_Radial12" cx="0" cy="0" r="1" gradientUnits="userSpaceOnUse" gradientTransform="matrix(-540,206,-206,-540,500,500)"><stop offset="0" style="stop-color:#fff;stop-opacity:0"/><stop offset="1" style="stop-color:#fff;stop-opacity:1"/></radialGradient><radialGradient id="_Radial13" cx="0" cy="0" r="1" gradientUnits="userSpaceOnUse" gradientTransform="matrix(-540,206,-206,-540,500,500)"><stop offset="0" style="stop-color:#fff;stop-opacity:0"/><stop offset="1" style="stop-color:#fff;stop-opacity:1"/></radialGradient><radialGradient id="_Radial14" cx="0" cy="0" r="1" gradientUnits="userSpaceOnUse" gradientTransform="matrix(-540,206,-206,-540,500,500)"><stop offset="0" style="stop-color:#fff;stop-opacity:0"/><stop offset="1" style="stop-color:#fff;stop-opacity:1"/></radialGradient><radialGradient id="_Radial15" cx="0" cy="0" r="1" gradientUnits="userSpaceOnUse" gradientTransform="matrix(-540,206,-206,-540,500,500)"><stop offset="0" style="stop-color:#fff;stop-opacity:0"/><stop offset="1" style="stop-color:#fff;stop-opacity:1"/></radialGradient><radialGradient id="_Radial16" cx="0" cy="0" r="1" gradientUnits="userSpaceOnUse" gradientTransform="matrix(-540,206,-206,-540,500,500)"><stop offset="0" style="stop-color:#fff;stop-opacity:0"/><stop offset="1" style="stop-color:#fff;stop-opacity:1"/></radialGradient><radialGradient id="_Radial17" cx="0" cy="0" r="1" gradientUnits="userSpaceOnUse" gradientTransform="matrix(-540,206,-206,-540,500,500)"><stop offset="0" style="stop-color:#fff;stop-opacity:0"/><stop offset="1" style="stop-color:#fff;stop-opacity:1"/></radialGradient><radialGradient id="_Radial18" cx="0" cy="0" r="1" gradientUnits="userSpaceOnUse" gradientTransform="matrix(-540,206,-206,-540,500,500)"><stop offset="0" style="stop-color:#fff;stop-opacity:0"/><stop offset="1" style="stop-color:#fff;stop-opacity:1"/></radialGradient><radialGradient id="_Radial19" cx="0" cy="0" r="1" gradientUnits="userSpaceOnUse" gradientTransform="matrix(-540,206,-206,-540,500,500)"><stop offset="0" style="stop-color:#fff;stop-opacity:0"/><stop offset="1" style="stop-color:#fff;stop-opacity:1"/></radialGradient><radialGradient id="_Radial20" cx="0" cy="0" r="1" gradientUnits="userSpaceOnUse" gradientTransform="matrix(-540,206,-206,-540,500,500)"><stop offset="0" style="stop-color:#fff;stop-opacity:0"/><stop offset="1" style="stop-color:#fff;stop-opacity:1"/></radialGradient><radialGradient id="_Radial21" cx="0" cy="0" r="1" gradientUnits="userSpaceOnUse" gradientTransform="matrix(-540,206,-206,-540,500,500)"><stop offset="0" style="stop-color:#fff;stop-opacity:0"/><stop offset="1" style="stop-color:#fff;stop-opacity:1"/></radialGradient><radialGradient id="_Radial22" cx="0" cy="0" r="1" gradientUnits="userSpaceOnUse" gradientTransform="matrix(-540,206,-206,-540,500,500)"><stop offset="0" style="stop-color:#fff;stop-opacity:0"/><stop offset="1" style="stop-color:#fff;stop-opacity:1"/></radialGradient><radialGradient id="_Radial23" cx="0" cy="0" r="1" gradientUnits="userSpaceOnUse" gradientTransform="matrix(-540,206,-206,-540,500,500)"><stop offset="0" style="stop-color:#fff;stop-opacity:0"/><stop offset="1" style="stop-color:#fff;stop-opacity:1"/></radialGradient><radialGradient id="_Radial24" cx="0" cy="0" r="1" gradientUnits="userSpaceOnUse" gradientTransform="matrix(-540,206,-206,-540,500,500)"><stop offset="0" style="stop-color:#fff;stop-opacity:0"/><stop offset="1" style="stop-color:#fff;stop-opacity:1"/></radialGradient><radialGradient id="_Radial25" cx="0" cy="0" r="1" gradientUnits="userSpaceOnUse" gradientTransform="matrix(-540,206,-206,-540,500,500)"><stop offset="0" style="stop-color:#fff;stop-opacity:0"/><stop offset="1" style="stop-color:#fff;stop-opacity:1"/></radialGradient><radialGradient id="_Radial26" cx="0" cy="0" r="1" gradientUnits="userSpaceOnUse" gradientTransform="matrix(-540,206,-206,-540,500,500)"><stop offset="0" style="stop-color:#fff;stop-opacity:0"/><stop offset="1" style="stop-color:#fff;stop-opacity:1"/></radialGradient><radialGradient id="_Radial27" cx="0" cy="0" r="1" gradientUnits="userSpaceOnUse" gradientTransform="matrix(-540,206,-206,-540,500,500)"><stop offset="0" style="stop-color:#fff;stop-opacity:0"/><stop offset="1" style="stop-color:#fff;stop-opacity:1"/></radialGradient><radialGradient id="_Radial28" cx="0" cy="0" r="1" gradientUnits="userSpaceOnUse" gradientTransform="matrix(-540,206,-206,-540,500,500)"><stop offset="0" style="stop-color:#fff;stop-opacity:0"/><stop offset="1" style="stop-color:#fff;stop-opacity:1"/></radialGradient></defs></svg>