<svg id="one" xmlns="http://www.w3.org/2000/svg" xmlns:xlink="http://www.w3.org/1999/xlink" viewBox="0 0 1200 1850" shape-rendering="geometricPrecision" text-rendering="geometricPrecision">
<style><![CDATA[
#one-u-shadow_ts {animation: one-u-shadow_ts__ts 3000ms linear infinite normal forwards}@keyframes one-u-shadow_ts__ts { 0% {transform: translate(600px,1600px) scale(1,1);animation-timing-function: cubic-bezier(0,0,0.58,1)} 9.333333% {transform: translate(600px,1600px) scale(1.15,1.15);animation-timing-function: cubic-bezier(0,0,0.58,1)} 12.333333% {transform: translate(600px,1600px) scale(1,1);animation-timing-function: cubic-bezier(0.39,0.575,0.565,1)} 19% {transform: translate(600px,1600px) scale(0.75,0.75);animation-timing-function: cubic-bezier(0.39,0.575,0.565,1)} 38.333333% {transform: translate(600px,1600px) scale(0.9,0.9);animation-timing-function: cubic-bezier(0.42,0,0.58,1)} 61.666667% {transform: translate(600px,1600px) scale(0.75,0.75);animation-timing-function: cubic-bezier(0.42,0,1,1)} 66.666667% {transform: translate(600px,1600px) scale(1,1);animation-timing-function: cubic-bezier(0.39,0.575,0.565,1)} 76.333333% {transform: translate(600px,1600px) scale(1.15,1.15);animation-timing-function: cubic-bezier(0.39,0.575,0.565,1)} 83.333333% {transform: translate(600px,1600px) scale(1,1);animation-timing-function: cubic-bezier(0,0,0.58,1)} 89.666667% {transform: translate(600px,1600px) scale(1.15,1.15);animation-timing-function: cubic-bezier(0,0,0.58,1)} 98.333333% {transform: translate(600px,1600px) scale(1,1)} 100% {transform: translate(600px,1600px) scale(1,1)}} #one-u-ball_to {animation: one-u-ball_to__to 3000ms linear infinite normal forwards}@keyframes one-u-ball_to__to { 0% {transform: translate(600.000025px,1000px);animation-timing-function: cubic-bezier(0,0,0.58,1)} 9.333333% {transform: translate(600.000025px,1070px);animation-timing-function: cubic-bezier(0,0,0.58,1)} 12.333333% {transform: translate(600.000025px,1000px);animation-timing-function: cubic-bezier(0.39,0.575,0.565,1)} 38.333333% {transform: translate(600.000025px,620px);animation-timing-function: cubic-bezier(0.42,0,1,1)} 66.666667% {transform: translate(600.000025px,1000px);animation-timing-function: cubic-bezier(0.39,0.575,0.565,1)} 76.333333% {transform: translate(600.000025px,1070px);animation-timing-function: cubic-bezier(0.39,0.575,0.565,1)} 83.333333% {transform: translate(600.000025px,1000px);animation-timing-function: cubic-bezier(0,0,0.58,1)} 89.666667% {transform: translate(600.000025px,1035px);animation-timing-function: cubic-bezier(0,0,0.58,1)} 98.333333% {transform: translate(600.000025px,1000px)} 100% {transform: translate(600.000025px,1000px)}} #one-u-ball_ts {animation: one-u-ball_ts__ts 3000ms linear infinite normal forwards}@keyframes one-u-ball_ts__ts { 0% {transform: scale(1,1);animation-timing-function: cubic-bezier(0,0,0.58,1)} 9.333333% {transform: scale(1.1,0.9);animation-timing-function: cubic-bezier(0,0,0.58,1)} 12.333333% {transform: scale(1,1);animation-timing-function: cubic-bezier(0.39,0.575,0.565,1)} 19% {transform: scale(0.9,1.1);animation-timing-function: cubic-bezier(0.39,0.575,0.565,1)} 38.333333% {transform: scale(1.05,0.95);animation-timing-function: cubic-bezier(0.42,0,0.58,1)} 61.666667% {transform: scale(0.9,1.1);animation-timing-function: cubic-bezier(0.42,0,1,1)} 66.666667% {transform: scale(1,1);animation-timing-function: cubic-bezier(0.39,0.575,0.565,1)} 76.333333% {transform: scale(1.1,0.9);animation-timing-function: cubic-bezier(0.39,0.575,0.565,1)} 83.333333% {transform: scale(1,1);animation-timing-function: cubic-bezier(0,0,0.58,1)} 89.666667% {transform: scale(1.05,0.95);animation-timing-function: cubic-bezier(0,0,0.58,1)} 98.333333% {transform: scale(1,1)} 100% {transform: scale(1,1)}} #one-u-head_to {animation: one-u-head_to__to 3000ms linear infinite normal forwards}@keyframes one-u-head_to__to { 0% {transform: translate(600px,700px);animation-timing-function: cubic-bezier(0,0,0.58,1)} 9.333333% {transform: translate(600.000005px,770px);animation-timing-function: cubic-bezier(0,0,0.58,1)} 12.333333% {transform: translate(600px,700px);animation-timing-function: cubic-bezier(0.39,0.575,0.565,1)} 38.333333% {transform: translate(600.000005px,320px);animation-timing-function: cubic-bezier(0.42,0,1,1)} 66.666667% {transform: translate(600px,700px);animation-timing-function: cubic-bezier(0.39,0.575,0.565,1)} 76.333333% {transform: translate(600.000005px,770px);animation-timing-function: cubic-bezier(0.39,0.575,0.565,1)} 83.333333% {transform: translate(600px,700px);animation-timing-function: cubic-bezier(0,0,0.58,1)} 89.666667% {transform: translate(600.000005px,735px);animation-timing-function: cubic-bezier(0,0,0.58,1)} 98.333333% {transform: translate(600px,700px)} 100% {transform: translate(600px,700px)}}
]]></style>
<defs><radialGradient id="one-s-ellipse1-fill" cx="0" cy="0" r="1" spreadMethod="pad" gradientUnits="userSpaceOnUse" gradientTransform="matrix(0 967.977 -721.98 0 0 -517.972)"><stop id="one-s-ellipse1-fill-0" offset="0%" stop-color="#26bfb3"/><stop id="one-s-ellipse1-fill-1" offset="74%" stop-color="#26bfb3"/><stop id="one-s-ellipse1-fill-2" offset="96%" stop-color="#23afa4"/><stop id="one-s-ellipse1-fill-3" offset="100%" stop-color="#26bfb3"/></radialGradient><radialGradient id="one-s-ellipse2-fill" cx="0" cy="0" r="1" spreadMethod="pad" gradientUnits="userSpaceOnUse" gradientTransform="matrix(1.63235 487.846 -555.791 1.859687 0 24.425)"><stop id="one-s-ellipse2-fill-0" offset="0%" stop-color="rgba(255,255,255,0)"/><stop id="one-s-ellipse2-fill-1" offset="83%" stop-color="rgba(255,255,255,0)"/><stop id="one-s-ellipse2-fill-2" offset="100%" stop-color="rgba(255,255,255,0.5)"/></radialGradient><radialGradient id="one-s-path1-fill" cx="0" cy="0" r="1" spreadMethod="pad" gradientUnits="userSpaceOnUse" gradientTransform="matrix(0 549.942 -547 0 592.948 574.14)"><stop id="one-s-path1-fill-0" offset="0%" stop-color="rgba(255,255,255,0.451)"/><stop id="one-s-path1-fill-1" offset="100%" stop-color="rgba(255,255,255,0)"/></radialGradient><radialGradient id="one-s-ellipse3-fill" cx="0" cy="0" r="1" spreadMethod="pad" gradientUnits="userSpaceOnUse" gradientTransform="matrix(248.034 0 0 163.769 0 0.006)"><stop id="one-s-ellipse3-fill-0" offset="0%" stop-color="rgba(0,52,48,0.5)"/><stop id="one-s-ellipse3-fill-1" offset="100%" stop-color="rgba(0,52,48,0)"/></radialGradient><linearGradient id="one-s-ellipse5-stroke" x1="0" y1="-449.994" x2="0" y2="450.006" spreadMethod="pad" gradientUnits="userSpaceOnUse" gradientTransform="translate(0 0)"><stop id="one-s-ellipse5-stroke-0" offset="0%" stop-color="#2eaaa0"/><stop id="one-s-ellipse5-stroke-1" offset="100%" stop-color="#2a978f"/></linearGradient><radialGradient id="one-s-path3-fill" cx="0" cy="0" r="1" spreadMethod="pad" gradientUnits="userSpaceOnUse" gradientTransform="matrix(0 557.32 -557.32 0 600 200.006)"><stop id="one-s-path3-fill-0" offset="0%" stop-color="#26bfb3"/><stop id="one-s-path3-fill-1" offset="53%" stop-color="#26bfb3"/><stop id="one-s-path3-fill-2" offset="100%" stop-color="#1e968d"/></radialGradient><linearGradient id="one-s-path3-stroke" x1="616" y1="100.006" x2="616" y2="724.49" spreadMethod="pad" gradientUnits="userSpaceOnUse" gradientTransform="translate(0 0)"><stop id="one-s-path3-stroke-0" offset="0%" stop-color="#2eaaa0"/><stop id="one-s-path3-stroke-1" offset="100%" stop-color="#268780"/></linearGradient><radialGradient id="one-s-ellipse6-fill" cx="0" cy="0" r="1" spreadMethod="pad" gradientUnits="userSpaceOnUse" gradientTransform="matrix(0 -50.4863 137.297 0 0 0)"><stop id="one-s-ellipse6-fill-0" offset="0%" stop-color="rgba(245,148,167,0.4)"/><stop id="one-s-ellipse6-fill-1" offset="100%" stop-color="rgba(245,148,167,0)"/></radialGradient><radialGradient id="one-s-ellipse7-fill" cx="0" cy="0" r="1" spreadMethod="pad" gradientUnits="userSpaceOnUse" gradientTransform="matrix(0 -50.4863 137.297 0 0 0)"><stop id="one-s-ellipse7-fill-0" offset="0%" stop-color="rgba(245,148,167,0.4)"/><stop id="one-s-ellipse7-fill-1" offset="100%" stop-color="rgba(245,148,167,0)"/></radialGradient><radialGradient id="one-s-path9-fill" cx="0" cy="0" r="1" spreadMethod="pad" gradientUnits="userSpaceOnUse" gradientTransform="matrix(0 557.32 -557.32 0 600 200.006)"><stop id="one-s-path9-fill-0" offset="0%" stop-color="#26bfb3"/><stop id="one-s-path9-fill-1" offset="53%" stop-color="#26bfb3"/><stop id="one-s-path9-fill-2" offset="100%" stop-color="#1e968d"/></radialGradient><radialGradient id="one-s-path10-fill" cx="0" cy="0" r="1" spreadMethod="pad" gradientUnits="userSpaceOnUse" gradientTransform="matrix(0 236.478 -313.27 0 600 227.098)"><stop id="one-s-path10-fill-0" offset="0%" stop-color="rgba(255,255,255,0.2)"/><stop id="one-s-path10-fill-1" offset="100%" stop-color="rgba(255,255,255,0)"/></radialGradient><linearGradient id="one-s-ellipse9-fill" x1="0" y1="-50.673" x2="0" y2="50.676" spreadMethod="pad" gradientUnits="userSpaceOnUse" gradientTransform="translate(0 0)"><stop id="one-s-ellipse9-fill-0" offset="0%" stop-color="#166f68"/><stop id="one-s-ellipse9-fill-1" offset="100%" stop-color="#21c4b7"/></linearGradient><linearGradient id="one-s-ellipse10-fill" x1="0" y1="-22.615" x2="0" y2="22.6152" spreadMethod="pad" gradientUnits="userSpaceOnUse" gradientTransform="translate(0 0)"><stop id="one-s-ellipse10-fill-0" offset="0%" stop-color="#1ddecf"/><stop id="one-s-ellipse10-fill-1" offset="100%" stop-color="#b6f1ec"/></linearGradient><linearGradient id="one-s-ellipse11-fill" x1="0" y1="-12.131" x2="0" y2="12.1307" spreadMethod="pad" gradientUnits="userSpaceOnUse" gradientTransform="translate(0 0)"><stop id="one-s-ellipse11-fill-0" offset="0%" stop-color="rgba(255,255,255,0.25)"/><stop id="one-s-ellipse11-fill-1" offset="100%" stop-color="rgba(255,255,255,0.5)"/></linearGradient><linearGradient id="one-s-ellipse12-fill" x1="0" y1="-50.673" x2="0" y2="50.676" spreadMethod="pad" gradientUnits="userSpaceOnUse" gradientTransform="translate(0 0)"><stop id="one-s-ellipse12-fill-0" offset="0%" stop-color="#166f68"/><stop id="one-s-ellipse12-fill-1" offset="100%" stop-color="#21c4b7"/></linearGradient><linearGradient id="one-s-ellipse13-fill" x1="0" y1="-22.615" x2="0" y2="22.6152" spreadMethod="pad" gradientUnits="userSpaceOnUse" gradientTransform="translate(0 0)"><stop id="one-s-ellipse13-fill-0" offset="0%" stop-color="#1ddecf"/><stop id="one-s-ellipse13-fill-1" offset="100%" stop-color="#b6f1ec"/></linearGradient><linearGradient id="one-s-ellipse14-fill" x1="0" y1="-12.131" x2="0" y2="12.1307" spreadMethod="pad" gradientUnits="userSpaceOnUse" gradientTransform="translate(0 0)"><stop id="one-s-ellipse14-fill-0" offset="0%" stop-color="rgba(255,255,255,0.25)"/><stop id="one-s-ellipse14-fill-1" offset="100%" stop-color="rgba(255,255,255,0.5)"/></linearGradient></defs><g id="one-u-shadow_ts" transform="translate(600,1600) scale(1,1)"><ellipse id="one-u-shadow" rx="400" ry="200" transform="translate(0,0)" fill-opacity="0.05" stroke-linecap="round" stroke-linejoin="round"/></g><g id="one-u-ball_to" transform="translate(600.000025,1000)"><g id="one-u-ball_ts" transform="scale(1,1)"><g id="one-u-ball" transform="translate(-600,-700)"><ellipse id="one-s-ellipse1" rx="500" ry="450" transform="translate(600 930)" fill="url(#one-s-ellipse1-fill)" stroke-linecap="round" stroke-linejoin="round"/><ellipse id="one-s-ellipse2" rx="500" ry="450" transform="translate(600 930)" fill="url(#one-s-ellipse2-fill)" stroke-linecap="round" stroke-linejoin="round"/><g id="one-s-g1" clip-path="url(#one-u-a)"><g id="one-s-g2"><path id="one-s-path1" d="M1044.37,809.572c-21.6-171.868-213.279-311.403-444.369-311.403s-422.769,139.535-444.369,311.403c48.618,135.167,230.996,244.906,444.369,244.906s395.751-109.739,444.369-244.906Z" fill="url(#one-s-path1-fill)" stroke-linecap="round" stroke-linejoin="round"/><ellipse id="one-s-ellipse3" rx="248.034" ry="163.769" transform="translate(600 570)" fill="url(#one-s-ellipse3-fill)" stroke-linecap="round" stroke-linejoin="round"/><path id="one-s-path2" d="M507.42,721.506c10.986,13.542,48.688,24.538,92.58,24.538s81.594-10.996,92.58-24.538c-17.885,8.841-53.212,16.019-92.58,16.019s-74.695-7.178-92.58-16.019Zm398.845-17.642c13.981-7.068,32.264.904,40.802,17.793c8.538,16.888,4.12,36.338-9.861,43.406s-32.264-.904-40.802-17.792c-8.539-16.889-4.12-36.339,9.861-43.407Zm48.96-7.169c5.259-4.173,14.011-1.911,19.533,5.048c5.521,6.959,5.735,15.996.476,20.168-5.258,4.173-14.01,1.911-19.532-5.048s-5.735-15.996-.477-20.168ZM317.276,672.608c24.13,18.679,21.381,62.701-6.133,98.243-27.515,35.542-69.443,49.232-93.573,30.552-24.129-18.679-21.381-62.7,6.134-98.242c27.514-35.543,69.443-49.233,93.572-30.553ZM200.656,820.266c10.199,4.332,14.528,17.153,9.661,28.613s-17.099,17.247-27.298,12.915c-10.2-4.332-14.528-17.153-9.661-28.613c4.867-11.459,17.099-17.247,27.298-12.915Z" fill="#fff" stroke-linecap="round" stroke-linejoin="round"/></g><clipPath id="one-u-a"><ellipse id="one-s-ellipse4" rx="500" ry="450" transform="translate(600 930)" stroke-linecap="round" stroke-linejoin="round"/></clipPath></g><ellipse id="one-s-ellipse5" rx="500" ry="450" transform="translate(600 930)" fill="none" stroke="url(#one-s-ellipse5-stroke)" stroke-width="8" stroke-linecap="round" stroke-linejoin="round"/></g></g></g><g id="one-u-head_to" transform="translate(600,700)"><g id="one-u-head" transform="translate(-600,-400.000427)"><path id="one-s-path3" d="M619.608,186.253c93.968-8.107,229.746,62.29,229.746,253.107c0,88.267-14.018,120.352,20.554,182.119-12.234-1.484-35.15-13.114-44.921-29.312-10.336,34.872-31.072,66.862-67.072,87.945c18.66-49.273,17.917-75.538,9.109-102.725l-323.073-6.559c-21.23,28.143-14.547,74.419.564,109.284-43.211-29.59-59.148-54.803-76.954-85.664-10.317,11.621-20.045,23.694-37.469,33.437c35.509-80.562,19.262-103.555,19.262-188.525c0-122.834,76.831-259.948,242.6-250.515c4.781-26.006,15.693-53.597,24.67-66.126c17.33-12.677,45.385-23.113,71.985-22.713-7.247,20.876-36.007,62.013-69.001,86.247Z" fill="url(#one-s-path3-fill)" stroke="url(#one-s-path3-stroke)" stroke-width="8" stroke-linecap="round" stroke-linejoin="round"/><path id="one-s-path4" d="M419.615,568.815c0,0,32.77-13.79,12.78-61.296-7.611-18.087-28.474-26.592-46.561-18.981-18.086,7.611-26.591,28.474-18.98,46.56c19.99,47.507,52.761,33.717,52.761,33.717Zm360.77,0c0,0-32.77-13.79-12.78-61.296c7.611-18.087,28.474-26.592,46.561-18.981c18.086,7.611,26.591,28.474,18.98,46.56-19.99,47.507-52.761,33.717-52.761,33.717Z" fill="#fcd4d2" stroke="#fbb5b5" stroke-width="8" stroke-linecap="round" stroke-miterlimit="1"/><path id="one-s-path5" d="M600,700.006c-66,0-114.232-25.115-158-63.505-26.398-23.154-54-88.129-54-162.679l53-83.446h282.294L812,473.822c0,74.55-27.602,139.525-54,162.679-43.768,38.39-92,63.505-158,63.505Z" fill="#ffe0e0" stroke-linecap="round" stroke-linejoin="round"/><g id="one-s-g3" clip-path="url(#one-u-b)"><g id="one-s-g4"><ellipse id="one-s-ellipse6" rx="137.297" ry="50.486" transform="translate(455.404 593.33)" fill="url(#one-s-ellipse6-fill)" stroke-linecap="round" stroke-linejoin="round"/><ellipse id="one-s-ellipse7" rx="137.297" ry="50.486" transform="translate(744.596 593.33)" fill="url(#one-s-ellipse7-fill)" stroke-linecap="round" stroke-linejoin="round"/><path id="one-s-path6" d="M608.166,240.808C480.21,244.199,416.955,295.748,386.5,361.115c-16.919,36.312-4.587,59.883.965,89.995c3.544,19.227-2.432,80.315-2.681,102.133c29.623-20.964,46.794-84.773,47.765-103.344c52.361,39.452,139.657,58.091,219.754,34.359-19.879-15.653-33.973-37.632-42.203-53.097c41.553,32.906,98.709,64.75,181.705,48.845.705,11.369,23.783,37.276,29.716,50.625c0,0-3.184-36.301,12.869-63.048c3.712-6.185.053-23.743,1.145-31.689c11.351-82.629-97.966-198.515-227.369-195.086Z" fill="#ffd1d1" stroke-linecap="round" stroke-linejoin="round"/></g><clipPath id="one-u-b"><path id="one-s-path7" d="M600,700.006c-66,0-114.232-25.115-158-63.505-26.398-23.154-54-88.129-54-162.679l53-83.446h282.294L812,473.822c0,74.55-27.602,139.525-54,162.679-43.768,38.39-92,63.505-158,63.505Z" stroke-linecap="round" stroke-linejoin="round"/></clipPath></g><path id="one-s-path8" d="M600,700.006c-66,0-114.232-25.115-158-63.505-26.398-23.154-54-88.129-54-162.679l53-83.446h282.294L812,473.822c0,74.55-27.602,139.525-54,162.679-43.768,38.39-92,63.505-158,63.505Z" fill="none" stroke="#fbb5b5" stroke-width="8" stroke-linecap="round" stroke-miterlimit="1"/><path id="one-s-path9" d="M825.458,418.261L594,287.006L359.692,429.455c17.847,30.529,30.584,105.874,16.464,140.485c38.546-44.839,43.096-103.584,45.796-122.483c51.914,30.765,141.765,50.672,219.817,38.694-19.282-10.854-51.19-45.641-59.568-61.957c44.498,40.873,133.58,53.344,200.328,38.511-3.372,18.842,12.439,86.258,37.615,103.594-4.973-23.871-1.996-83.391,1.448-108.242c1.693-12.209,3.332-25.243,3.866-39.796Z" fill="url(#one-s-path9-fill)" stroke-linecap="round" stroke-linejoin="round"/><path id="one-s-path10" d="M803.562,329.387C790.51,257.471,703.79,199.084,600,199.084s-190.51,58.387-203.562,130.303C418.709,389.205,502.255,437.769,600,437.769s181.291-48.564,203.562-108.382Z" fill="url(#one-s-path10-fill)" stroke-linecap="round" stroke-linejoin="round"/><path id="one-s-path11" d="M749.922,289.404c6.763-3.419,15.608.438,19.738,8.607c4.131,8.17,1.993,17.58-4.77,20.999-6.764,3.42-15.609-.437-19.739-8.607-4.131-8.17-1.993-17.579,4.771-20.999Zm23.685-3.468c2.544-2.019,6.778-.924,9.449,2.442s2.774,7.738.23,9.757c-2.543,2.018-6.777.924-9.449-2.442-2.671-3.367-2.774-7.739-.23-9.757ZM464.989,274.283c11.673,9.037,10.344,30.333-2.967,47.527-13.31,17.194-33.594,23.817-45.267,14.78-11.673-9.036-10.344-30.332,2.967-47.526s33.594-23.817,45.267-14.781Zm-56.417,71.432c4.934,2.096,7.029,8.298,4.674,13.842-2.354,5.544-8.272,8.344-13.206,6.248s-7.028-8.298-4.674-13.842c2.355-5.544,8.272-8.343,13.206-6.248Z" fill="#fff" stroke-linecap="round" stroke-linejoin="round"/><path id="one-s-path12" d="M377.342,482.916c9.506,28.952,5.435,58.337-.803,87.954c33.678-31.885,41.238-89.733,43.963-123.647c50.452,31.935,146.695,48.804,225.114,38.928-19.283-10.854-55.037-45.641-63.415-61.957c44.498,40.873,137.299,49.142,200.372,40.158.509,28.897,15.646,81.465,39.384,106.323-7.113-25.619-10.37-62.056-2.141-89.865" fill="none" stroke="#1e968d" stroke-width="8" stroke-linecap="round" stroke-linejoin="round" stroke-miterlimit="44"/><path id="one-s-path13" d="M552,622.953c0,24.008,21.508,43.5,48,43.5s48-19.492,48-43.5c-9.486-9.775-27.728-17.71-48-17.71s-38.514,7.935-48,17.71Z" fill="#ff8a9e" stroke-linecap="round" stroke-linejoin="round"/><g id="one-s-g5" clip-path="url(#one-u-c)"><g id="one-s-g6"><ellipse id="one-s-ellipse8" rx="51" ry="14.707" transform="translate(600 602.243)" fill="#fff" stroke-linecap="round" stroke-linejoin="round"/></g><clipPath id="one-u-c"><path id="one-s-path14" d="M552,622.953c0,24.008,21.508,43.5,48,43.5s48-19.492,48-43.5c-9.486-9.775-27.728-17.71-48-17.71s-38.514,7.935-48,17.71Z" stroke-linecap="round" stroke-linejoin="round"/></clipPath></g><path id="one-s-path15" d="M414.765,502.883c3.334,34.201,22.855,76.798,65.694,77.063c35.401.218,53.356-40.338,53.356-68.585c0-22.443-2.823-28.147-13.955-36.102-23.838-17.036-63.313-18.633-95.926,7.111-6.494,5.076-9.803,14.012-9.169,20.513Z" fill="#fff" stroke-linecap="round" stroke-linejoin="round"/><g id="one-s-g7" clip-path="url(#one-u-d)"><g id="one-s-g8"><ellipse id="one-s-ellipse9" rx="39.44" ry="50.675" transform="translate(479.364 527.535)" fill="url(#one-s-ellipse9-fill)" stroke-linecap="round" stroke-linejoin="round"/><ellipse id="one-s-ellipse10" rx="16.173" ry="22.615" transform="translate(479.364 527.535)" fill="url(#one-s-ellipse10-fill)" stroke-linecap="round" stroke-linejoin="round"/><path id="one-s-path16" d="M440.667,537.367c-.496445-3.253772-.744827-6.540574-.743-9.832c0-27.968,17.672-50.674,39.44-50.674c21.767,0,39.44,22.706,39.44,50.674c0,3.379-.258,6.681-.75,9.877-26.194-22.713-52.113-22.064-77.387-.045Z" fill-opacity="0.25" stroke-linecap="round" stroke-linejoin="round"/><path id="one-s-path17" d="M470.477,486.875c4.734,3.504,4.205,11.828-1.181,18.578-5.385,6.749-13.601,9.384-18.335,5.881-4.734-3.504-4.205-11.828,1.18-18.578c5.386-6.749,13.602-9.384,18.336-5.881Z" fill="#fff" stroke-linecap="round" stroke-linejoin="round"/><ellipse id="one-s-ellipse11" rx="17.558" ry="12.131" transform="translate(479.364 564.902)" fill="url(#one-s-ellipse11-fill)" stroke-linecap="round" stroke-linejoin="round"/><path id="one-s-path18" d="M539.899,459.026h-130.706l5.507,54.249c43.479-38.368,83.1-39.896,124.03-2.016l1.169-52.233Z" fill="#13605a" stroke-linecap="round" stroke-linejoin="round"/></g><clipPath id="one-u-d"><path id="one-s-path19" d="M414.765,502.883c3.334,34.201,22.855,76.798,65.694,77.063c35.401.218,53.356-40.338,53.356-68.585c0-22.443-2.823-28.147-13.955-36.102-23.838-17.036-63.313-18.633-95.926,7.111-6.494,5.076-9.803,14.012-9.169,20.513Z" stroke-linecap="round" stroke-linejoin="round"/></clipPath></g><path id="one-s-path20" d="M785.235,502.883c-3.334,34.201-22.855,76.798-65.694,77.063-35.401.218-53.356-40.338-53.356-68.585c0-22.443,2.823-28.147,13.955-36.102c23.838-17.036,63.313-18.633,95.926,7.111c6.494,5.076,9.803,14.012,9.169,20.513Z" fill="#fff" stroke-linecap="round" stroke-linejoin="round"/><g id="one-s-g9" clip-path="url(#one-u-e)"><g id="one-s-g10"><ellipse id="one-s-ellipse12" rx="39.44" ry="50.675" transform="translate(720.636 527.535)" fill="url(#one-s-ellipse12-fill)" stroke-linecap="round" stroke-linejoin="round"/><ellipse id="one-s-ellipse13" rx="16.173" ry="22.615" transform="translate(720.636 527.535)" fill="url(#one-s-ellipse13-fill)" stroke-linecap="round" stroke-linejoin="round"/><path id="one-s-path21" d="M681.939,537.367c-.496445-3.253772-.744827-6.540574-.743-9.832c0-27.968,17.673-50.674,39.44-50.674c21.768,0,39.44,22.706,39.44,50.674c0,3.379-.258,6.681-.75,9.877-26.194-22.713-52.113-22.064-77.387-.045Z" fill-opacity="0.25" stroke-linecap="round" stroke-linejoin="round"/><path id="one-s-path22" d="M711.749,486.875c4.734,3.504,4.205,11.828-1.18,18.578-5.386,6.749-13.602,9.384-18.336,5.881-4.734-3.504-4.205-11.828,1.181-18.578c5.385-6.749,13.601-9.384,18.335-5.881Z" fill="#fff" stroke-linecap="round" stroke-linejoin="round"/><ellipse id="one-s-ellipse14" rx="17.558" ry="12.131" transform="translate(720.636 564.902)" fill="url(#one-s-ellipse14-fill)" stroke-linecap="round" stroke-linejoin="round"/><path id="one-s-path23" d="M660.101,459.026h130.706L785.3,513.275c-43.479-38.368-83.1-39.896-124.03-2.016l-1.169-52.233Z" fill="#13605a" stroke-linecap="round" stroke-linejoin="round"/></g><clipPath id="one-u-e"><path id="one-s-path24" d="M785.235,502.883c-3.334,34.201-22.855,76.798-65.694,77.063-35.401.218-53.356-40.338-53.356-68.585c0-22.443,2.823-28.147,13.955-36.102c23.838-17.036,63.313-18.633,95.926,7.111c6.494,5.076,9.803,14.012,9.169,20.513Z" stroke-linecap="round" stroke-linejoin="round"/></clipPath></g><path id="one-s-path25" d="M754.482,424.697c1.691204.886434,3.777695.377502,4.870809-1.188077s.852026-3.699668-.562809-4.981923c-8.658-7.503-22.465-11.627-36.586-11.757-14.399-.133-28.889,3.483-37.604,10.986-1.343906,1.208251-1.584815,3.225151-.563296,4.71594s2.989387,1.994191,4.601296,1.17706c9.399-4.649,22.052-6.459,33.566-6.188c11.395.269,23.329,2.773,32.278,7.236Zm-308.964,0c-1.691204.886434-3.777695.377502-4.870809-1.188077s-.852026-3.699668.562809-4.981923c8.658-7.503,22.465-11.627,36.586-11.757c14.399-.133,28.889,3.483,37.604,10.986c1.343906,1.208251,1.584815,3.225151.563296,4.71594s-2.989387,1.994191-4.601296,1.17706c-9.399-4.649-22.052-6.459-33.566-6.188-11.395.269-23.329,2.773-32.278,7.236Z" fill="#115751" stroke-linecap="round" stroke-linejoin="round"/></g></g></svg>
