<?xml version="1.0" encoding="UTF-8" standalone="no"?><!DOCTYPE svg PUBLIC "-//W3C//DTD SVG 1.1//EN" "http://www.w3.org/Graphics/SVG/1.1/DTD/svg11.dtd"><svg width="100%" height="100%" viewBox="0 0 1200 1600" version="1.1" xmlns="http://www.w3.org/2000/svg" xmlns:xlink="http://www.w3.org/1999/xlink" xml:space="preserve" xmlns:serif="http://www.serif.com/" style="fill-rule:evenodd;clip-rule:evenodd;stroke-linecap:round;stroke-linejoin:round;stroke-miterlimit:1.5;"><rect id="cyan-default" x="0" y="0" width="1200" height="1600" style="fill:none;"/><g><ellipse cx="600" cy="1300" rx="400" ry="200" style="fill-opacity:0.05;"/><g><ellipse cx="600" cy="930" rx="500" ry="450" style="fill:none;"/><clipPath id="_clip1"><ellipse cx="600" cy="930" rx="500" ry="450"/></clipPath><g clip-path="url(#_clip1)"><ellipse cx="600" cy="930" rx="500" ry="450" style="fill:url(#_Linear2);"/><ellipse cx="600" cy="918.75" rx="487.5" ry="438.75" style="fill:url(#_Radial3);"/><ellipse cx="600" cy="918.75" rx="487.5" ry="438.75" style="fill:url(#_Linear4);"/><ellipse cx="600" cy="735" rx="330" ry="245" style="fill:url(#_Linear5);"/><ellipse cx="600" cy="570" rx="240" ry="160" style="fill:url(#_Radial6);"/><path d="M507.42,721.5c10.986,13.543 48.688,24.538 92.58,24.538c43.892,-0 81.594,-10.995 92.58,-24.538c-17.885,8.841 -53.212,16.019 -92.58,16.019c-39.368,0 -74.695,-7.178 -92.58,-16.019Z" style="fill:#fff;"/></g><ellipse cx="600" cy="930" rx="500" ry="450" style="fill:none;stroke:url(#_Linear7);stroke-width:8px;"/><g><path d="M325.441,658.336c16.358,24.57 3.715,67.714 -28.216,96.285c-31.932,28.571 -71.138,31.819 -87.497,7.248c-16.359,-24.57 -3.716,-67.714 28.216,-96.285c31.932,-28.571 71.138,-31.819 87.497,-7.248Z" style="fill:#fff;"/><path d="M202.755,798.001c7.707,8.565 7.625,22.988 -0.182,32.187c-7.807,9.2 -20.402,9.715 -28.108,1.15c-7.707,-8.565 -7.625,-22.988 0.182,-32.188c7.807,-9.2 20.402,-9.715 28.108,-1.149Z" style="fill:#fff;"/><path d="M891.076,699.934c13.05,-8.668 31.866,-2.721 41.993,13.27c10.126,15.992 7.753,36.013 -5.297,44.681c-13.05,8.668 -31.866,2.722 -41.992,-13.27c-10.127,-15.992 -7.753,-36.013 5.296,-44.681Z" style="fill:#fff;"/><path d="M951.134,686.185c5.656,-5.183 15.655,-3.2 22.314,4.425c6.659,7.625 7.473,18.023 1.817,23.205c-5.657,5.183 -15.655,3.2 -22.315,-4.425c-6.659,-7.625 -7.473,-18.023 -1.816,-23.205Z" style="fill:#fff;"/></g></g><g><path d="M595.169,189.117c4.157,-26.427 12.654,-49.271 22.255,-62.671c17.33,-12.676 40.518,-24.446 68.185,-26.446c-7.9,22.756 -37.934,66.056 -72.276,87.492c64.544,-9.79 123.776,15.684 162.114,53.953c39.286,39.217 74.553,94.288 74.553,198.555c-0,88.267 -29.76,137.306 -16.037,201.539c-9.587,-8.345 -16.555,-20.9 -18.959,-29.242c-19.935,30.351 -42.925,51.237 -75.31,69.737c19.529,-43.121 15.464,-66.229 20.609,-101.987l-323.941,-0c1.819,40.596 7.42,63.001 23.9,101.987c-27.395,-18.252 -51.142,-35.769 -72.3,-69.737c-3.855,11.655 -9.167,20.165 -19.476,29.242c15.492,-67.709 -18.486,-110.214 -18.486,-201.539c0,-78.325 23.465,-142.178 65.105,-185.293c41.403,-42.869 112.298,-77.274 180.064,-65.59Z" style="fill:url(#_Radial8);stroke:url(#_Linear9);stroke-width:8px;stroke-miterlimit:4;"/><path d="M419.615,568.809c-0,0 32.77,-13.789 12.78,-61.296c-7.611,-18.086 -28.474,-26.591 -46.561,-18.981c-18.086,7.611 -26.591,28.474 -18.98,46.561c19.99,47.506 52.761,33.716 52.761,33.716Z" style="fill:#fcd4d2;stroke:#fbb5b5;stroke-width:8px;stroke-linejoin:miter;stroke-miterlimit:1;"/><path d="M780.385,568.809c0,0 -32.77,-13.789 -12.78,-61.296c7.611,-18.086 28.474,-26.591 46.561,-18.981c18.086,7.611 26.591,28.474 18.98,46.561c-19.99,47.506 -52.761,33.716 -52.761,33.716Z" style="fill:#fcd4d2;stroke:#fbb5b5;stroke-width:8px;stroke-linejoin:miter;stroke-miterlimit:1;"/><path d="M600,700c-66,0 -114.232,-25.114 -158,-63.504c-26.398,-23.155 -54,-88.13 -54,-162.68c-0,-124.128 86.98,-226.854 212,-226.855c125.02,0.001 212,102.727 212,226.855c0,74.55 -27.602,139.525 -54,162.68c-43.768,38.39 -92,63.504 -158,63.504Z" style="fill:#ffe0e0;"/><clipPath id="_clip10"><path d="M600,700c-66,0 -114.232,-25.114 -158,-63.504c-26.398,-23.155 -54,-88.13 -54,-162.68c-0,-124.128 86.98,-226.854 212,-226.855c125.02,0.001 212,102.727 212,226.855c0,74.55 -27.602,139.525 -54,162.68c-43.768,38.39 -92,63.504 -158,63.504Z"/></clipPath><g clip-path="url(#_clip10)"><ellipse cx="455.404" cy="593.324" rx="137.297" ry="50.486" style="fill:url(#_Radial11);"/><ellipse cx="744.596" cy="593.324" rx="137.297" ry="50.486" style="fill:url(#_Radial12);"/><path d="M608.166,240.802c-127.956,3.391 -191.211,54.941 -221.666,120.307c-16.919,36.313 -4.587,59.883 0.965,89.996c3.544,19.227 -0.737,58.284 -0.986,80.102c24.539,-20.964 42.545,-64.186 43.515,-82.757c52.362,39.452 140.824,58.285 220.921,34.553c-19.88,-15.653 -32.585,-36.382 -40.815,-51.848c41.553,32.906 98.246,61.197 181.242,45.292c0.705,11.37 24.246,40.829 30.179,54.179c0,-0 -3.184,-36.302 12.869,-63.049c3.712,-6.184 0.053,-23.742 1.145,-31.689c11.351,-82.629 -97.966,-198.515 -227.369,-195.086Z" style="fill:#fcd4d2;"/></g><path d="M600,700c-66,0 -114.232,-25.114 -158,-63.504c-26.398,-23.155 -54,-88.13 -54,-162.68c-0,-124.128 86.98,-226.854 212,-226.855c125.02,0.001 212,102.727 212,226.855c0,74.55 -27.602,139.525 -54,162.68c-43.768,38.39 -92,63.504 -158,63.504Z" style="fill:none;stroke:#fbb5b5;stroke-width:8px;stroke-linejoin:miter;stroke-miterlimit:1;"/><path d="M599.267,234.869c-127.957,3.391 -225.467,82.026 -225.467,190.604c0,9.81 0.677,18.126 1.703,25.459c4.365,31.207 15.039,44.592 6.673,79.399c24.952,-19.459 34.165,-63.127 36.865,-82.026c51.914,30.765 155.743,47.081 226.94,33.731c-19.282,-10.854 -55.402,-41.531 -63.78,-57.847c44.498,40.872 134.978,56.364 201.725,41.531c2.93,17.696 14.726,44.356 35.528,62.487c-4.973,-23.871 -1.306,-45.305 2.138,-70.155c1.693,-12.21 3.332,-25.244 3.866,-39.797c3.058,-83.348 -96.789,-186.815 -226.191,-183.386Z" style="fill:url(#_Radial13);"/><path d="M379.083,469.588c4.599,19.587 9.593,33.699 3.093,60.743c24.952,-19.459 34.165,-63.127 36.865,-82.026c51.914,30.765 155.743,47.081 226.94,33.731c-19.282,-10.854 -55.402,-41.531 -63.78,-57.847c44.498,40.872 134.978,56.364 201.725,41.531c2.93,17.696 14.726,44.356 35.528,62.487c-3.917,-18.805 -2.473,-36.098 0,-54.74" style="fill:none;stroke:#1e968d;stroke-width:8px;stroke-miterlimit:44;"/><path d="M552,622.947c-0,24.009 21.508,43.5 48,43.5c26.492,0 48,-19.491 48,-43.5c-9.486,-9.774 -27.728,-17.71 -48,-17.71c-20.272,0 -38.514,7.936 -48,17.71Z" style="fill:#ff8a9e;"/><clipPath id="_clip14"><path d="M552,622.947c-0,24.009 21.508,43.5 48,43.5c26.492,0 48,-19.491 48,-43.5c-9.486,-9.774 -27.728,-17.71 -48,-17.71c-20.272,0 -38.514,7.936 -48,17.71Z"/></clipPath><g clip-path="url(#_clip14)"><ellipse cx="600" cy="602.237" rx="51" ry="14.707" style="fill:#fff;"/></g><g><g><path d="M783.328,515.117c-9.228,35.081 -25.747,66.444 -64.43,66.339c-42.125,-0.113 -48.354,-38.235 -52.791,-68.786c-0.917,-6.317 -1.47,-13.762 -0.959,-20.042c0.342,-4.296 2.517,-8.237 5.969,-10.817c30.605,-22.809 71.859,-26.256 106.312,1.388c6.254,4.97 9.399,12.887 8.262,20.794c-0.603,4.214 -1.544,8.008 -2.363,11.124Z" style="fill:#fff;"/><clipPath id="_clip15"><path d="M783.328,515.117c-9.228,35.081 -25.747,66.444 -64.43,66.339c-42.125,-0.113 -48.354,-38.235 -52.791,-68.786c-0.917,-6.317 -1.47,-13.762 -0.959,-20.042c0.342,-4.296 2.517,-8.237 5.969,-10.817c30.605,-22.809 71.859,-26.256 106.312,1.388c6.254,4.97 9.399,12.887 8.262,20.794c-0.603,4.214 -1.544,8.008 -2.363,11.124Z"/></clipPath><g clip-path="url(#_clip15)"><g><ellipse cx="719.31" cy="528.817" rx="38.176" ry="50.931" style="fill:url(#_Linear16);"/><ellipse cx="719.31" cy="528.817" rx="15.655" ry="26.078" style="fill:url(#_Linear17);"/><path d="M681.853,538.698c-0.472,-3.195 -0.72,-6.5 -0.72,-9.881c0,-28.11 17.107,-50.932 38.177,-50.932c21.07,0 38.176,22.822 38.176,50.932c0,3.395 -0.25,6.714 -0.726,9.926c-25.354,-22.828 -50.443,-22.175 -74.907,-0.045Z" style="fill-opacity:0.25;"/><g><path d="M710.708,487.951c4.582,3.521 4.07,11.887 -1.143,18.671c-5.213,6.784 -13.166,9.432 -17.748,5.911c-4.583,-3.521 -4.071,-11.888 1.143,-18.672c5.213,-6.783 13.165,-9.432 17.748,-5.91Z" style="fill:#fff;"/><ellipse cx="719.31" cy="567.225" rx="15.807" ry="11.34" style="fill:url(#_Linear18);"/><ellipse cx="725.432" cy="574.562" rx="3.21" ry="2.652" style="fill:#fff;fill-opacity:0.5;"/><ellipse cx="726.361" cy="546.244" rx="3.639" ry="3.762" style="fill:#fff;"/><ellipse cx="722.304" cy="541.445" rx="1.165" ry="1.204" style="fill:#fff;"/></g></g><path d="M657.632,459.706l132.707,0l-0,52.485l-6.267,0c-40.36,-37.279 -79.103,-36.486 -118.263,-1.722l-8.177,-0l0,-50.763Z" style="fill:#115751;"/></g></g><g><path d="M416.672,515.117c9.228,35.081 25.747,66.444 64.43,66.339c42.125,-0.113 48.354,-38.235 52.791,-68.786c0.917,-6.317 1.47,-13.762 0.959,-20.042c-0.342,-4.296 -2.517,-8.237 -5.969,-10.817c-30.605,-22.809 -71.859,-26.256 -106.312,1.388c-6.254,4.97 -9.399,12.887 -8.262,20.794c0.603,4.214 1.544,8.008 2.363,11.124Z" style="fill:#fff;"/><clipPath id="_clip19"><path d="M416.672,515.117c9.228,35.081 25.747,66.444 64.43,66.339c42.125,-0.113 48.354,-38.235 52.791,-68.786c0.917,-6.317 1.47,-13.762 0.959,-20.042c-0.342,-4.296 -2.517,-8.237 -5.969,-10.817c-30.605,-22.809 -71.859,-26.256 -106.312,1.388c-6.254,4.97 -9.399,12.887 -8.262,20.794c0.603,4.214 1.544,8.008 2.363,11.124Z"/></clipPath><g clip-path="url(#_clip19)"><g><ellipse cx="480.69" cy="528.817" rx="38.176" ry="50.931" style="fill:url(#_Linear20);"/><ellipse cx="480.69" cy="528.817" rx="15.655" ry="26.078" style="fill:url(#_Linear21);"/><path d="M443.233,538.698c-0.472,-3.195 -0.719,-6.5 -0.719,-9.881c-0,-28.11 17.106,-50.932 38.176,-50.932c21.07,0 38.177,22.822 38.177,50.932c-0,3.395 -0.25,6.714 -0.726,9.926c-25.355,-22.828 -50.444,-22.175 -74.908,-0.045Z" style="fill-opacity:0.25;"/><g><path d="M472.088,487.951c4.583,3.521 4.07,11.887 -1.143,18.671c-5.213,6.784 -13.165,9.432 -17.748,5.911c-4.582,-3.521 -4.07,-11.888 1.143,-18.672c5.213,-6.783 13.166,-9.432 17.748,-5.91Z" style="fill:#fff;"/><ellipse cx="480.69" cy="567.225" rx="15.807" ry="11.34" style="fill:url(#_Linear22);"/><ellipse cx="486.813" cy="574.562" rx="3.21" ry="2.652" style="fill:#fff;fill-opacity:0.5;"/><ellipse cx="487.741" cy="546.244" rx="3.639" ry="3.762" style="fill:#fff;"/><ellipse cx="483.685" cy="541.445" rx="1.165" ry="1.204" style="fill:#fff;"/></g></g><path d="M542.368,459.706l-132.707,0l0,52.485l6.267,0c40.36,-37.279 79.103,-36.486 118.263,-1.722l8.177,-0l-0,-50.763Z" style="fill:#115751;"/></g></g></g><g><path d="M758.415,428.539c1.691,0.884 3.775,0.375 4.867,-1.19c1.093,-1.564 0.853,-3.696 -0.559,-4.979c-8.658,-7.503 -22.465,-11.627 -36.586,-11.757c-14.4,-0.134 -28.889,3.482 -37.604,10.986c-1.348,1.206 -1.592,3.226 -0.569,4.719c1.023,1.493 2.994,1.995 4.607,1.174c9.399,-4.65 22.052,-6.459 33.566,-6.188c11.395,0.269 23.329,2.772 32.278,7.235Z" style="fill:#115751;"/><path d="M441.585,428.539c-1.691,0.884 -3.775,0.375 -4.867,-1.19c-1.093,-1.564 -0.853,-3.696 0.559,-4.979c8.658,-7.503 22.465,-11.627 36.586,-11.757c14.4,-0.134 28.889,3.482 37.604,10.986c1.348,1.206 1.592,3.226 0.569,4.719c-1.023,1.493 -2.994,1.995 -4.607,1.174c-9.399,-4.65 -22.052,-6.459 -33.566,-6.188c-11.395,0.269 -23.329,2.772 -32.278,7.235Z" style="fill:#115751;"/></g><g><path d="M515.291,260.43c12.791,15.266 5.353,42.617 -16.6,61.04c-21.953,18.424 -50.16,20.988 -62.951,5.722c-12.791,-15.265 -5.352,-42.616 16.6,-61.04c21.953,-18.423 50.161,-20.987 62.951,-5.722Z" style="fill:#fff;"/><path d="M758.404,319.053c5.692,-1.501 11.774,2.806 13.574,9.613c1.801,6.806 -1.358,13.55 -7.05,15.051c-5.691,1.501 -11.774,-2.807 -13.574,-9.613c-1.801,-6.806 1.359,-13.55 7.05,-15.051Z" style="fill:#fff;"/><path d="M781.587,321.318c2.631,-1.151 5.999,0.725 7.516,4.187c1.517,3.461 0.612,7.205 -2.019,8.356c-2.631,1.15 -5.999,-0.725 -7.516,-4.187c-1.517,-3.461 -0.612,-7.205 2.019,-8.356Z" style="fill:#fff;"/><path d="M424.695,340.826c5.907,5.295 6.416,14.384 1.136,20.283c-5.281,5.9 -14.363,6.391 -20.27,1.096c-5.907,-5.295 -6.416,-14.384 -1.135,-20.283c5.28,-5.9 14.362,-6.391 20.269,-1.096Z" style="fill:#fff;"/></g></g></g><defs><linearGradient id="_Linear2" x1="0" y1="0" x2="1" y2="0" gradientUnits="userSpaceOnUse" gradientTransform="matrix(5.51091e-14,900,-900,5.51091e-14,600,480)"><stop offset="0" style="stop-color:#26bfb3;stop-opacity:1"/><stop offset="1" style="stop-color:#23b2a7;stop-opacity:1"/></linearGradient><radialGradient id="_Radial3" cx="0" cy="0" r="1" gradientUnits="userSpaceOnUse" gradientTransform="matrix(4.45194e-14,727.058,-759.371,4.64981e-14,600,630.442)"><stop offset="0" style="stop-color:#26bfb3;stop-opacity:1"/><stop offset="0.54" style="stop-color:#26bfb3;stop-opacity:1"/><stop offset="0.74" style="stop-color:#24b6aa;stop-opacity:1"/><stop offset="1" style="stop-color:#20a197;stop-opacity:1"/></radialGradient><linearGradient id="_Linear4" x1="0" y1="0" x2="1" y2="0" gradientUnits="userSpaceOnUse" gradientTransform="matrix(-5.64358e-13,237,-237,-5.64358e-13,600,1120.5)"><stop offset="0" style="stop-color:#fff;stop-opacity:0"/><stop offset="0.53" style="stop-color:#fff;stop-opacity:0.11"/><stop offset="1" style="stop-color:#fff;stop-opacity:0.5"/></linearGradient><linearGradient id="_Linear5" x1="0" y1="0" x2="1" y2="0" gradientUnits="userSpaceOnUse" gradientTransform="matrix(2.78909e-14,490,-594,3.91275e-14,600,490)"><stop offset="0" style="stop-color:#fff;stop-opacity:0.4"/><stop offset="0.83" style="stop-color:#fff;stop-opacity:0"/><stop offset="1" style="stop-color:#fff;stop-opacity:0"/></linearGradient><radialGradient id="_Radial6" cx="0" cy="0" r="1" gradientUnits="userSpaceOnUse" gradientTransform="matrix(240,-7.40455e-30,1.86464e-61,160,600,570)"><stop offset="0" style="stop-color:#004b45;stop-opacity:0.5"/><stop offset="1" style="stop-color:#004d46;stop-opacity:0"/></radialGradient><linearGradient id="_Linear7" x1="0" y1="0" x2="1" y2="0" gradientUnits="userSpaceOnUse" gradientTransform="matrix(5.38845e-14,900,-880,5.51091e-14,600,480)"><stop offset="0" style="stop-color:#2eaaa0;stop-opacity:1"/><stop offset="1" style="stop-color:#2a978f;stop-opacity:1"/></linearGradient><radialGradient id="_Radial8" cx="0" cy="0" r="1" gradientUnits="userSpaceOnUse" gradientTransform="matrix(0,500,-500,0,600,200)"><stop offset="0" style="stop-color:#26bfb3;stop-opacity:1"/><stop offset="0.5" style="stop-color:#26bfb3;stop-opacity:1"/><stop offset="1" style="stop-color:#1e968d;stop-opacity:1"/></radialGradient><linearGradient id="_Linear9" x1="0" y1="0" x2="1" y2="0" gradientUnits="userSpaceOnUse" gradientTransform="matrix(3.82386e-14,624.484,-624.484,3.82386e-14,616,100)"><stop offset="0" style="stop-color:#2eaaa0;stop-opacity:1"/><stop offset="1" style="stop-color:#268780;stop-opacity:1"/></linearGradient><radialGradient id="_Radial11" cx="0" cy="0" r="1" gradientUnits="userSpaceOnUse" gradientTransform="matrix(2.03726e-07,-50.4863,137.297,1.3238e-06,455.404,593.324)"><stop offset="0" style="stop-color:#f594a7;stop-opacity:0.5"/><stop offset="1" style="stop-color:#f594a7;stop-opacity:0"/></radialGradient><radialGradient id="_Radial12" cx="0" cy="0" r="1" gradientUnits="userSpaceOnUse" gradientTransform="matrix(2.03726e-07,-50.4863,137.297,1.3238e-06,744.596,593.324)"><stop offset="0" style="stop-color:#f594a7;stop-opacity:0.5"/><stop offset="1" style="stop-color:#f594a7;stop-opacity:0"/></radialGradient><radialGradient id="_Radial13" cx="0" cy="0" r="1" gradientUnits="userSpaceOnUse" gradientTransform="matrix(0,500,-500,0,600,200)"><stop offset="0" style="stop-color:#26bfb3;stop-opacity:1"/><stop offset="0.5" style="stop-color:#26bfb3;stop-opacity:1"/><stop offset="1" style="stop-color:#1e968d;stop-opacity:1"/></radialGradient><linearGradient id="_Linear16" x1="0" y1="0" x2="1" y2="0" gradientUnits="userSpaceOnUse" gradientTransform="matrix(6.2373e-15,101.863,-101.863,6.2373e-15,957.929,477.885)"><stop offset="0" style="stop-color:#115751;stop-opacity:1"/><stop offset="1" style="stop-color:#26bfb3;stop-opacity:1"/></linearGradient><linearGradient id="_Linear17" x1="0" y1="0" x2="1" y2="0" gradientUnits="userSpaceOnUse" gradientTransform="matrix(-1.54866e-12,52.1563,-52.1563,-1.54866e-12,957.929,502.738)"><stop offset="0" style="stop-color:#26bfb3;stop-opacity:1"/><stop offset="1" style="stop-color:#abeee9;stop-opacity:1"/></linearGradient><linearGradient id="_Linear18" x1="0" y1="0" x2="1" y2="0" gradientUnits="userSpaceOnUse" gradientTransform="matrix(1.67328e-12,22.6793,-22.6793,1.67328e-12,719.31,555.886)"><stop offset="0" style="stop-color:#fff;stop-opacity:0.25"/><stop offset="1" style="stop-color:#fff;stop-opacity:0.5"/></linearGradient><linearGradient id="_Linear20" x1="0" y1="0" x2="1" y2="0" gradientUnits="userSpaceOnUse" gradientTransform="matrix(6.2373e-15,101.863,-101.863,6.2373e-15,719.31,477.885)"><stop offset="0" style="stop-color:#115751;stop-opacity:1"/><stop offset="1" style="stop-color:#26bfb3;stop-opacity:1"/></linearGradient><linearGradient id="_Linear21" x1="0" y1="0" x2="1" y2="0" gradientUnits="userSpaceOnUse" gradientTransform="matrix(-1.54866e-12,52.1563,-52.1563,-1.54866e-12,719.31,502.738)"><stop offset="0" style="stop-color:#26bfb3;stop-opacity:1"/><stop offset="1" style="stop-color:#abeee9;stop-opacity:1"/></linearGradient><linearGradient id="_Linear22" x1="0" y1="0" x2="1" y2="0" gradientUnits="userSpaceOnUse" gradientTransform="matrix(1.67328e-12,22.6793,-22.6793,1.67328e-12,480.69,555.886)"><stop offset="0" style="stop-color:#fff;stop-opacity:0.25"/><stop offset="1" style="stop-color:#fff;stop-opacity:0.5"/></linearGradient></defs></svg>