<svg viewBox="0 0 1200 1600" xmlns="http://www.w3.org/2000/svg" fill-rule="evenodd" clip-rule="evenodd" stroke-linecap="round" stroke-linejoin="round" stroke-miterlimit="1.5"><path fill="none" d="M0 0h1200v1600H0z"/><ellipse cx="600" cy="1300.01" rx="400" ry="200" fill-opacity=".05"/><ellipse cx="600" cy="930.006" rx="500" ry="450" fill="url(#prefix___Radial1)"/><ellipse cx="600" cy="930.006" rx="500" ry="450" fill="url(#prefix___Radial2)"/><clipPath id="prefix__a"><ellipse cx="600" cy="930.006" rx="500" ry="450"/></clipPath><g clip-path="url(#prefix__a)"><path d="M1044.37 809.572c-21.6-171.868-213.279-311.403-444.369-311.403-231.09 0-422.769 139.535-444.369 311.403 48.618 135.167 230.996 244.906 444.369 244.906 213.373 0 395.751-109.739 444.369-244.906z" fill="url(#prefix___Radial4)"/><ellipse cx="600" cy="570.006" rx="248.034" ry="163.769" fill="url(#prefix___Radial5)"/><path d="M507.42 721.506c10.986 13.542 48.688 24.538 92.58 24.538 43.892 0 81.594-10.996 92.58-24.538-17.885 8.841-53.212 16.019-92.58 16.019-39.368 0-74.695-7.178-92.58-16.019z" fill="#fff"/><g fill="#fff"><path d="M906.265 703.864c13.981-7.068 32.264.904 40.802 17.793 8.538 16.888 4.12 36.338-9.861 43.406-13.981 7.068-32.264-.904-40.802-17.792-8.539-16.889-4.12-36.339 9.861-43.407zM955.225 696.695c5.259-4.173 14.011-1.911 19.533 5.048 5.521 6.959 5.735 15.996.476 20.168-5.258 4.173-14.01 1.911-19.532-5.048s-5.735-15.996-.477-20.168zM317.276 672.608c24.13 18.679 21.381 62.701-6.133 98.243-27.515 35.542-69.443 49.232-93.573 30.552-24.129-18.679-21.381-62.7 6.134-98.242 27.514-35.543 69.443-49.233 93.572-30.553zM200.656 820.266c10.199 4.332 14.528 17.153 9.661 28.613-4.867 11.46-17.099 17.247-27.298 12.915-10.2-4.332-14.528-17.153-9.661-28.613 4.867-11.459 17.099-17.247 27.298-12.915z"/></g></g><ellipse cx="600" cy="930.006" rx="500" ry="450" fill="none" stroke="url(#prefix___Linear6)" stroke-width="8"/><path d="M619.608 186.253c93.968-8.107 229.746 62.29 229.746 253.107 0 88.267-14.018 120.352 20.554 182.119-12.234-1.484-35.15-13.114-44.921-29.312-10.336 34.872-31.072 66.862-67.072 87.945 18.66-49.273 17.917-75.538 9.109-102.725l-323.073-6.559c-21.23 28.143-14.547 74.419.564 109.284-43.211-29.59-59.148-54.803-76.954-85.664-10.317 11.621-20.045 23.694-37.469 33.437 35.509-80.562 19.262-103.555 19.262-188.525 0-122.834 76.831-259.948 242.6-250.515 4.781-26.006 15.693-53.597 24.67-66.126 17.33-12.677 45.385-23.113 71.985-22.713-7.247 20.876-36.007 62.013-69.001 86.247z" fill="url(#prefix___Radial7)" stroke="url(#prefix___Linear8)" stroke-width="8" stroke-miterlimit="4"/><path d="M419.615 568.815s32.77-13.79 12.78-61.296c-7.611-18.087-28.474-26.592-46.561-18.981-18.086 7.611-26.591 28.474-18.98 46.56 19.99 47.507 52.761 33.717 52.761 33.717zM780.385 568.815s-32.77-13.79-12.78-61.296c7.611-18.087 28.474-26.592 46.561-18.981 18.086 7.611 26.591 28.474 18.98 46.56-19.99 47.507-52.761 33.717-52.761 33.717z" fill="#fcd4d2" stroke="#fbb5b5" stroke-width="8" stroke-linejoin="miter" stroke-miterlimit="1"/><path d="M600 700.006c-66 0-114.232-25.115-158-63.505-26.398-23.154-54-88.129-54-162.679l53-83.446h282.294L812 473.822c0 74.55-27.602 139.525-54 162.679-43.768 38.39-92 63.505-158 63.505z" fill="#ffe0e0"/><clipPath id="prefix__b"><path d="M600 700.006c-66 0-114.232-25.115-158-63.505-26.398-23.154-54-88.129-54-162.679l53-83.446h282.294L812 473.822c0 74.55-27.602 139.525-54 162.679-43.768 38.39-92 63.505-158 63.505z"/></clipPath><g clip-path="url(#prefix__b)"><ellipse cx="455.404" cy="593.33" rx="137.297" ry="50.486" fill="url(#prefix___Radial10)"/><ellipse cx="744.596" cy="593.33" rx="137.297" ry="50.486" fill="url(#prefix___Radial11)"/><path d="M608.166 240.808c-127.956 3.391-191.211 54.94-221.666 120.307-16.919 36.312-4.587 59.883.965 89.995 3.544 19.227-2.432 80.315-2.681 102.133 29.623-20.964 46.794-84.773 47.765-103.344 52.361 39.452 139.657 58.091 219.754 34.359-19.879-15.653-33.973-37.632-42.203-53.097 41.553 32.906 98.709 64.75 181.705 48.845.705 11.369 23.783 37.276 29.716 50.625 0 0-3.184-36.301 12.869-63.048 3.712-6.185.053-23.743 1.145-31.689 11.351-82.629-97.966-198.515-227.369-195.086z" fill="#ffd1d1"/></g><path d="M600 700.006c-66 0-114.232-25.115-158-63.505-26.398-23.154-54-88.129-54-162.679l53-83.446h282.294L812 473.822c0 74.55-27.602 139.525-54 162.679-43.768 38.39-92 63.505-158 63.505z" fill="none" stroke="#fbb5b5" stroke-width="8" stroke-linejoin="miter" stroke-miterlimit="1"/><path d="M825.458 418.261L594 287.006 359.692 429.455c17.847 30.529 30.584 105.874 16.464 140.485 38.546-44.839 43.096-103.584 45.796-122.483 51.914 30.765 141.765 50.672 219.817 38.694-19.282-10.854-51.19-45.641-59.568-61.957 44.498 40.873 133.58 53.344 200.328 38.511-3.372 18.842 12.439 86.258 37.615 103.594-4.973-23.871-1.996-83.391 1.448-108.242 1.693-12.209 3.332-25.243 3.866-39.796z" fill="url(#prefix___Radial12)"/><path d="M803.562 329.387C790.51 257.471 703.79 199.084 600 199.084s-190.51 58.387-203.562 130.303C418.709 389.205 502.255 437.769 600 437.769c97.745 0 181.291-48.564 203.562-108.382z" fill="url(#prefix___Radial13)"/><g fill="#fff"><path d="M749.922 289.404c6.763-3.419 15.608.438 19.738 8.607 4.131 8.17 1.993 17.58-4.77 20.999-6.764 3.42-15.609-.437-19.739-8.607-4.131-8.17-1.993-17.579 4.771-20.999zM773.607 285.936c2.544-2.019 6.778-.924 9.449 2.442 2.671 3.366 2.774 7.738.23 9.757-2.543 2.018-6.777.924-9.449-2.442-2.671-3.367-2.774-7.739-.23-9.757zM464.989 274.283c11.673 9.037 10.344 30.333-2.967 47.527-13.31 17.194-33.594 23.817-45.267 14.78-11.673-9.036-10.344-30.332 2.967-47.526 13.311-17.194 33.594-23.817 45.267-14.781zM408.572 345.715c4.934 2.096 7.029 8.298 4.674 13.842-2.354 5.544-8.272 8.344-13.206 6.248-4.934-2.096-7.028-8.298-4.674-13.842 2.355-5.544 8.272-8.343 13.206-6.248z"/></g><path d="M377.342 482.916c9.506 28.952 5.435 58.337-.803 87.954 33.678-31.885 41.238-89.733 43.963-123.647 50.452 31.935 146.695 48.804 225.114 38.928-19.283-10.854-55.037-45.641-63.415-61.957 44.498 40.873 137.299 49.142 200.372 40.158.509 28.897 15.646 81.465 39.384 106.323-7.113-25.619-10.37-62.056-2.141-89.865" fill="none" stroke="#1e968d" stroke-width="8" stroke-miterlimit="44"/><path d="M552 622.953c0 24.008 21.508 43.5 48 43.5s48-19.492 48-43.5c-9.486-9.775-27.728-17.71-48-17.71s-38.514 7.935-48 17.71z" fill="#ff8a9e"/><clipPath id="prefix__c"><path d="M552 622.953c0 24.008 21.508 43.5 48 43.5s48-19.492 48-43.5c-9.486-9.775-27.728-17.71-48-17.71s-38.514 7.935-48 17.71z"/></clipPath><g clip-path="url(#prefix__c)"><ellipse cx="600" cy="602.243" rx="51" ry="14.707" fill="#fff"/></g><path d="M414.765 502.883c3.334 34.201 22.855 76.798 65.694 77.063 35.401.218 53.356-40.338 53.356-68.585 0-22.443-2.823-28.147-13.955-36.102-23.838-17.036-63.313-18.633-95.926 7.111-6.494 5.076-9.803 14.012-9.169 20.513z" fill="#fff"/><clipPath id="prefix__d"><path d="M414.765 502.883c3.334 34.201 22.855 76.798 65.694 77.063 35.401.218 53.356-40.338 53.356-68.585 0-22.443-2.823-28.147-13.955-36.102-23.838-17.036-63.313-18.633-95.926 7.111-6.494 5.076-9.803 14.012-9.169 20.513z"/></clipPath><g clip-path="url(#prefix__d)"><ellipse cx="479.364" cy="527.535" rx="39.44" ry="50.675" fill="url(#prefix___Linear16)"/><ellipse cx="479.364" cy="527.535" rx="16.173" ry="22.615" fill="url(#prefix___Linear17)"/><path d="M440.667 537.367a64.947 64.947 0 01-.743-9.832c0-27.968 17.672-50.674 39.44-50.674 21.767 0 39.44 22.706 39.44 50.674 0 3.379-.258 6.681-.75 9.877-26.194-22.713-52.113-22.064-77.387-.045z" fill-opacity=".25"/><path d="M470.477 486.875c4.734 3.504 4.205 11.828-1.181 18.578-5.385 6.749-13.601 9.384-18.335 5.881-4.734-3.504-4.205-11.828 1.18-18.578 5.386-6.749 13.602-9.384 18.336-5.881z" fill="#fff"/><ellipse cx="479.364" cy="564.902" rx="17.558" ry="12.131" fill="url(#prefix___Linear18)"/><path d="M539.899 459.026H409.193l5.507 54.249c43.479-38.368 83.1-39.896 124.03-2.016l1.169-52.233z" fill="#13605a"/></g><path d="M785.235 502.883c-3.334 34.201-22.855 76.798-65.694 77.063-35.401.218-53.356-40.338-53.356-68.585 0-22.443 2.823-28.147 13.955-36.102 23.838-17.036 63.313-18.633 95.926 7.111 6.494 5.076 9.803 14.012 9.169 20.513z" fill="#fff"/><clipPath id="prefix__e"><path d="M785.235 502.883c-3.334 34.201-22.855 76.798-65.694 77.063-35.401.218-53.356-40.338-53.356-68.585 0-22.443 2.823-28.147 13.955-36.102 23.838-17.036 63.313-18.633 95.926 7.111 6.494 5.076 9.803 14.012 9.169 20.513z"/></clipPath><g clip-path="url(#prefix__e)"><ellipse cx="720.636" cy="527.535" rx="39.44" ry="50.675" fill="url(#prefix___Linear20)"/><ellipse cx="720.636" cy="527.535" rx="16.173" ry="22.615" fill="url(#prefix___Linear21)"/><path d="M681.939 537.367a64.947 64.947 0 01-.743-9.832c0-27.968 17.673-50.674 39.44-50.674 21.768 0 39.44 22.706 39.44 50.674 0 3.379-.258 6.681-.75 9.877-26.194-22.713-52.113-22.064-77.387-.045z" fill-opacity=".25"/><path d="M711.749 486.875c4.734 3.504 4.205 11.828-1.18 18.578-5.386 6.749-13.602 9.384-18.336 5.881-4.734-3.504-4.205-11.828 1.181-18.578 5.385-6.749 13.601-9.384 18.335-5.881z" fill="#fff"/><ellipse cx="720.636" cy="564.902" rx="17.558" ry="12.131" fill="url(#prefix___Linear22)"/><path d="M660.101 459.026h130.706l-5.507 54.249c-43.479-38.368-83.1-39.896-124.03-2.016l-1.169-52.233z" fill="#13605a"/></g><g fill="#115751"><path d="M754.482 424.697a3.793 3.793 0 004.308-6.17c-8.658-7.503-22.465-11.627-36.586-11.757-14.399-.133-28.889 3.483-37.604 10.986a3.603 3.603 0 004.038 5.893c9.399-4.649 22.052-6.459 33.566-6.188 11.395.269 23.329 2.773 32.278 7.236zM445.518 424.697a3.793 3.793 0 01-4.308-6.17c8.658-7.503 22.465-11.627 36.586-11.757 14.399-.133 28.889 3.483 37.604 10.986a3.603 3.603 0 01-4.038 5.893c-9.399-4.649-22.052-6.459-33.566-6.188-11.395.269-23.329 2.773-32.278 7.236z"/></g><defs><radialGradient id="prefix___Radial1" cx="0" cy="0" r="1" gradientUnits="userSpaceOnUse" gradientTransform="matrix(0 967.977 -721.98 0 600 412.028)"><stop offset="0" stop-color="#26bfb3"/><stop offset=".74" stop-color="#26bfb3"/><stop offset=".96" stop-color="#23afa4"/><stop offset="1" stop-color="#26bfb3"/></radialGradient><radialGradient id="prefix___Radial2" cx="0" cy="0" r="1" gradientUnits="userSpaceOnUse" gradientTransform="matrix(1.63235 487.846 -555.791 1.85969 600 954.425)"><stop offset="0" stop-color="#fff" stop-opacity="0"/><stop offset=".83" stop-color="#fff" stop-opacity="0"/><stop offset="1" stop-color="#fff" stop-opacity=".5"/></radialGradient><radialGradient id="prefix___Radial4" cx="0" cy="0" r="1" gradientUnits="userSpaceOnUse" gradientTransform="matrix(0 549.942 -547 0 592.701 574.481)"><stop offset="0" stop-color="#fff" stop-opacity=".451"/><stop offset="1" stop-color="#fff" stop-opacity="0"/></radialGradient><radialGradient id="prefix___Radial5" cx="0" cy="0" r="1" gradientUnits="userSpaceOnUse" gradientTransform="matrix(248.034 0 0 163.769 600 570.006)"><stop offset="0" stop-color="#003430" stop-opacity=".5"/><stop offset="1" stop-color="#003430" stop-opacity="0"/></radialGradient><radialGradient id="prefix___Radial7" cx="0" cy="0" r="1" gradientUnits="userSpaceOnUse" gradientTransform="matrix(0 557.32 -557.32 0 600 200.006)"><stop offset="0" stop-color="#26bfb3"/><stop offset=".53" stop-color="#26bfb3"/><stop offset="1" stop-color="#1e968d"/></radialGradient><radialGradient id="prefix___Radial10" cx="0" cy="0" r="1" gradientUnits="userSpaceOnUse" gradientTransform="matrix(0 -50.4863 137.297 0 455.404 593.33)"><stop offset="0" stop-color="#f594a7" stop-opacity=".4"/><stop offset="1" stop-color="#f594a7" stop-opacity="0"/></radialGradient><radialGradient id="prefix___Radial11" cx="0" cy="0" r="1" gradientUnits="userSpaceOnUse" gradientTransform="matrix(0 -50.4863 137.297 0 744.596 593.33)"><stop offset="0" stop-color="#f594a7" stop-opacity=".4"/><stop offset="1" stop-color="#f594a7" stop-opacity="0"/></radialGradient><radialGradient id="prefix___Radial12" cx="0" cy="0" r="1" gradientUnits="userSpaceOnUse" gradientTransform="matrix(0 557.32 -557.32 0 600 200.006)"><stop offset="0" stop-color="#26bfb3"/><stop offset=".53" stop-color="#26bfb3"/><stop offset="1" stop-color="#1e968d"/></radialGradient><radialGradient id="prefix___Radial13" cx="0" cy="0" r="1" gradientUnits="userSpaceOnUse" gradientTransform="matrix(0 236.478 -313.27 0 600 227.098)"><stop offset="0" stop-color="#fff" stop-opacity=".2"/><stop offset="1" stop-color="#fff" stop-opacity="0"/></radialGradient><linearGradient id="prefix___Linear6" x1="0" y1="0" x2="1" y2="0" gradientUnits="userSpaceOnUse" gradientTransform="matrix(0 900 -880 0 600 480.006)"><stop offset="0" stop-color="#2eaaa0"/><stop offset="1" stop-color="#2a978f"/></linearGradient><linearGradient id="prefix___Linear8" x1="0" y1="0" x2="1" y2="0" gradientUnits="userSpaceOnUse" gradientTransform="matrix(0 624.484 -624.484 0 616 100.006)"><stop offset="0" stop-color="#2eaaa0"/><stop offset="1" stop-color="#268780"/></linearGradient><linearGradient id="prefix___Linear16" x1="0" y1="0" x2="1" y2="0" gradientUnits="userSpaceOnUse" gradientTransform="rotate(90 1.251 478.113) scale(101.349)"><stop offset="0" stop-color="#166f68"/><stop offset="1" stop-color="#21c4b7"/></linearGradient><linearGradient id="prefix___Linear17" x1="0" y1="0" x2="1" y2="0" gradientUnits="userSpaceOnUse" gradientTransform="rotate(90 -12.778 492.142) scale(45.2302)"><stop offset="0" stop-color="#1ddecf"/><stop offset="1" stop-color="#b6f1ec"/></linearGradient><linearGradient id="prefix___Linear18" x1="0" y1="0" x2="1" y2="0" gradientUnits="userSpaceOnUse" gradientTransform="matrix(0 24.2617 -25.1918 0 479.364 552.771)"><stop offset="0" stop-color="#fff" stop-opacity=".25"/><stop offset="1" stop-color="#fff" stop-opacity=".5"/></linearGradient><linearGradient id="prefix___Linear20" x1="0" y1="0" x2="1" y2="0" gradientUnits="userSpaceOnUse" gradientTransform="rotate(90 121.887 598.749) scale(101.349)"><stop offset="0" stop-color="#166f68"/><stop offset="1" stop-color="#21c4b7"/></linearGradient><linearGradient id="prefix___Linear21" x1="0" y1="0" x2="1" y2="0" gradientUnits="userSpaceOnUse" gradientTransform="rotate(90 107.858 612.778) scale(45.2302)"><stop offset="0" stop-color="#1ddecf"/><stop offset="1" stop-color="#b6f1ec"/></linearGradient><linearGradient id="prefix___Linear22" x1="0" y1="0" x2="1" y2="0" gradientUnits="userSpaceOnUse" gradientTransform="matrix(0 24.2617 -25.1918 0 720.636 552.771)"><stop offset="0" stop-color="#fff" stop-opacity=".25"/><stop offset="1" stop-color="#fff" stop-opacity=".5"/></linearGradient></defs></svg>