<svg xmlns="http://www.w3.org/2000/svg">
    <symbol id="cyan4s" viewBox="0 0 100 100">
        <path
            d="M17.428,87.924C26.181,95.449 37.563,100 50,100C63.261,100 75.979,94.732 85.355,85.355L67.678,67.678C62.989,72.366 56.63,75 50,75C38.446,75 28.712,67.145 25.852,56.488L17.428,87.924ZM1.697,62.954L32.326,32.326C36.851,27.801 43.101,25 50,25C56.63,25 62.989,27.634 67.678,32.322L100,0L75,6.699C67.464,2.347 58.853,0 50,0C22.404,0 0,22.404 0,50C0,54.479 0.59,58.822 1.697,62.954Z" />
    </symbol>
    <symbol id="twitter" viewBox="0 0 100 100">
        <path
            d="M89.762 29.6c.061.882.061 1.764.061 2.653 0 27.11-20.638 58.375-58.375 58.375v-.016A58.083 58.083 0 010 81.414a41.72 41.72 0 004.883.297 41.2 41.2 0 0025.481-8.8 20.541 20.541 0 01-19.168-14.247c3.076.593 6.245.471 9.263-.353-9.571-1.934-16.457-10.344-16.457-20.11v-.26a20.385 20.385 0 009.311 2.567c-9.015-6.024-11.794-18.017-6.35-27.394a58.23 58.23 0 0042.283 21.435 20.53 20.53 0 015.936-19.602c8.263-7.768 21.259-7.37 29.027.889a41.18 41.18 0 0013.028-4.98 20.586 20.586 0 01-9.018 11.346A40.814 40.814 0 00100 18.973 41.665 41.665 0 0189.762 29.6z" />
    </symbol>
    <symbol id="github" viewBox="0 0 100 100">
        <path
            d="M49.995 0C22.389 0 0 22.386 0 50.002c0 22.09 14.325 40.83 34.194 47.441 2.501.461 3.413-1.083 3.413-2.409 0-1.188-.043-4.331-.067-8.503-13.908 3.021-16.843-6.703-16.843-6.703-2.274-5.777-5.552-7.315-5.552-7.315-4.54-3.1.343-3.039.343-3.039 5.019.353 7.659 5.154 7.659 5.154 4.46 7.64 11.704 5.433 14.552 4.153.454-3.229 1.747-5.433 3.174-6.682-11.102-1.262-22.775-5.553-22.775-24.713 0-5.457 1.949-9.923 5.147-13.416-.516-1.265-2.231-6.351.491-13.233 0 0 4.196-1.344 13.748 5.126 3.987-1.111 8.266-1.663 12.518-1.685 4.248.022 8.523.574 12.517 1.685 9.546-6.47 13.736-5.126 13.736-5.126 2.728 6.882 1.013 11.968.5 13.233 3.204 3.493 5.138 7.959 5.138 13.416 0 19.209-11.691 23.436-22.827 24.673 1.792 1.544 3.391 4.595 3.391 9.257 0 6.685-.061 12.079-.061 13.718 0 1.338.902 2.894 3.438 2.406C85.687 90.813 100 72.086 100 50.002 100 22.386 77.611 0 49.995 0z" />
    </symbol>
    <symbol id="soundcloud" viewBox="0 0 100 100">
        <path
            d="M99.994,59.031c-0.214,7.495 -6.713,13.223 -14.165,13.223l-34.08,0c-1.563,-0.011 -2.822,-1.285 -2.816,-2.848l0,-36.671c-0.065,-1.301 0.687,-2.505 1.885,-3.019c-0,0 3.126,-2.141 9.721,-2.141c4.051,-0.015 8.03,1.073 11.51,3.148c5.481,3.207 9.366,8.567 10.707,14.775c1.176,-0.341 2.395,-0.51 3.619,-0.503c3.684,0.001 7.212,1.494 9.777,4.138c2.566,2.645 3.952,6.215 3.842,9.898Zm-55.322,-23.961c1.028,12.43 1.777,23.769 -0,36.178c-0,0.609 -0.494,1.103 -1.103,1.103c-0.609,-0 -1.103,-0.494 -1.103,-1.103c-1.649,-12.292 -0.921,-23.855 0,-36.178c0,-0.609 0.494,-1.103 1.103,-1.103c0.609,-0 1.103,0.494 1.103,1.103Zm-6.874,4.282c1.189,11.093 1.542,20.804 -0.021,31.939c-0.079,0.572 -0.568,0.999 -1.146,0.999c-0.578,0 -1.067,-0.427 -1.146,-0.999c-1.381,-10.975 -1.07,-20.943 0,-31.939c0,-0.638 0.518,-1.156 1.157,-1.156c0.638,-0 1.156,0.518 1.156,1.156Zm-6.927,-1.07c1.124,11.37 1.627,21.574 -0,32.977c-0,0.612 -0.496,1.108 -1.108,1.108c-0.612,-0 -1.109,-0.496 -1.109,-1.108c-1.584,-11.221 -1.07,-21.735 0,-32.977c0,-0.612 0.497,-1.109 1.109,-1.109c0.612,0 1.108,0.497 1.108,1.109Zm-6.863,3.212c1.354,9.894 1.343,19.927 -0.032,29.818c-0.057,0.582 -0.546,1.025 -1.13,1.025c-0.584,-0 -1.073,-0.443 -1.13,-1.025c-1.274,-9.899 -1.274,-19.92 0,-29.818c0,-0.633 0.513,-1.146 1.146,-1.146c0.633,0 1.146,0.513 1.146,1.146Zm-6.96,7.377c1.756,7.783 0.953,14.604 -0.118,22.484c0,0.591 -0.479,1.071 -1.07,1.071c-0.592,-0 -1.071,-0.48 -1.071,-1.071c-0.878,-7.752 -1.659,-14.808 0,-22.484c0.057,-0.582 0.546,-1.025 1.13,-1.025c0.584,-0 1.073,0.443 1.129,1.025Zm-6.895,-1.135c1.617,7.912 1.081,14.636 -0.043,22.58c-0.107,1.167 -2.141,1.178 -2.248,0c-1.017,-7.837 -1.446,-14.775 -0.043,-22.58c0.079,-0.584 0.578,-1.02 1.167,-1.02c0.589,0 1.088,0.436 1.167,1.02Zm-6.949,3.801c1.671,5.289 1.071,9.561 -0.107,14.904c0,0.591 -0.479,1.07 -1.07,1.07c-0.592,0 -1.071,-0.479 -1.071,-1.07c-1.007,-5.268 -1.478,-9.647 -0.096,-14.904c0.057,-0.605 0.565,-1.066 1.172,-1.066c0.607,0 1.115,0.461 1.172,1.066Z" />
    </symbol>
    <symbol id="pinterest" viewBox="0 0 100 100">
        <path
            d="M50.041 0C22.451 0 .082 22.368.082 49.959c0 21.176 13.158 39.268 31.744 46.546-.453-3.947-.823-10.033.164-14.35.905-3.907 5.839-24.836 5.839-24.836s-1.48-3.002-1.48-7.401c0-6.949 4.029-12.13 9.046-12.13 4.276 0 6.332 3.207 6.332 7.031 0 4.276-2.714 10.691-4.153 16.653-1.193 4.975 2.508 9.046 7.401 9.046 8.882 0 15.707-9.375 15.707-22.862 0-11.965-8.593-20.312-20.888-20.312-14.227 0-22.574 10.649-22.574 21.669 0 4.276 1.645 8.882 3.701 11.39.411.493.452.946.329 1.439-.37 1.563-1.234 4.975-1.398 5.674-.206.905-.74 1.111-1.686.658-6.25-2.919-10.156-12.006-10.156-19.366 0-15.749 11.431-30.222 33.018-30.222 17.311 0 30.798 12.335 30.798 28.865 0 17.228-10.856 31.085-25.905 31.085-5.058 0-9.827-2.631-11.431-5.756l-3.125 11.883c-1.11 4.358-4.153 9.786-6.209 13.117A50.188 50.188 0 0049.959 100c27.59 0 49.959-22.368 49.959-49.959C100 22.368 77.631 0 50.041 0z" />
    </symbol>
    <symbol id="behance" viewBox="0 0 100 100">
        <path
            d="M29.086 18.583c2.886 0 5.55.222 7.993.888 2.442.444 4.44 1.332 6.217 2.442 1.776 1.111 3.108 2.665 3.996 4.663.888 1.998 1.332 4.441 1.332 7.105 0 3.108-.666 5.773-2.22 7.771-1.332 1.998-3.552 3.774-6.217 5.107 3.775 1.11 6.661 3.108 8.437 5.772 1.777 2.665 2.887 5.995 2.887 9.77 0 3.108-.666 5.772-1.777 7.993-1.11 2.22-2.886 4.218-4.884 5.55-1.998 1.332-4.441 2.443-7.105 3.109-2.664.666-5.329 1.11-7.993 1.11H0v-61.28h29.086zM27.31 43.45c2.442 0 4.44-.666 5.994-1.776 1.554-1.11 2.221-3.108 2.221-5.551 0-1.332-.222-2.664-.667-3.552-.444-.888-1.11-1.554-1.998-2.221-.888-.444-1.776-.888-2.886-1.11-1.11-.222-2.22-.222-3.553-.222H13.544V43.45H27.31zm.666 26.2c1.332 0 2.664-.222 3.774-.445 1.11-.222 2.22-.666 3.108-1.332.889-.666 1.555-1.332 2.221-2.442.444-1.11.888-2.442.888-3.997 0-3.108-.888-5.328-2.664-6.882-1.777-1.333-4.219-1.999-7.105-1.999H13.544V69.65h14.432zm42.851-.222c1.776 1.776 4.441 2.664 7.993 2.664 2.442 0 4.663-.666 6.439-1.776 1.776-1.333 2.886-2.665 3.33-3.997h10.88c-1.776 5.329-4.441 9.103-7.993 11.546-3.553 2.22-7.771 3.552-12.878 3.552-3.552 0-6.661-.666-9.547-1.776-2.886-1.11-5.107-2.665-7.105-4.885-1.998-1.998-3.552-4.44-4.441-7.327-1.11-2.886-1.554-5.995-1.554-9.547 0-3.33.444-6.439 1.554-9.325 1.111-2.887 2.665-5.329 4.663-7.549 1.998-1.998 4.441-3.775 7.105-4.885 2.886-1.11 5.773-1.776 9.325-1.776 3.775 0 7.105.666 9.991 2.22 2.887 1.554 5.107 3.331 6.883 5.995 1.777 2.442 3.109 5.329 3.997 8.437.444 3.109.666 6.217.444 9.769H67.719c0 3.553 1.332 6.883 3.108 8.66zm13.988-23.314c-1.554-1.554-3.997-2.442-6.883-2.442-1.998 0-3.552.444-4.885 1.11-1.332.666-2.22 1.555-3.108 2.443-.888.888-1.332 1.998-1.554 3.108-.222 1.11-.444 1.998-.444 2.886h19.982c-.444-3.33-1.554-5.55-3.108-7.105zM65.276 22.801h24.868v5.995H65.276v-5.995z" />
    </symbol>
    <symbol id="instagram" viewBox="0 0 100 100">
        <path
            d="M50 0C36.421 0 34.718.058 29.385.301c-5.322.243-8.957 1.088-12.137 2.324-3.288 1.278-6.076 2.987-8.856 5.767-2.78 2.78-4.489 5.568-5.767 8.856C1.389 20.428.544 24.063.301 29.385.057 34.718 0 36.421 0 50c0 13.579.057 15.282.301 20.615.243 5.322 1.088 8.957 2.324 12.137 1.278 3.288 2.987 6.076 5.767 8.856 2.78 2.78 5.568 4.489 8.856 5.767 3.18 1.236 6.815 2.081 12.137 2.324 5.333.243 7.036.301 20.615.301 13.579 0 15.282-.058 20.615-.301 5.322-.243 8.957-1.088 12.137-2.324 3.288-1.278 6.076-2.987 8.856-5.767 2.78-2.78 4.489-5.568 5.767-8.856 1.236-3.18 2.081-6.815 2.324-12.137.243-5.333.301-7.036.301-20.615 0-13.579-.058-15.282-.301-20.615-.243-5.322-1.088-8.957-2.324-12.137-1.278-3.288-2.987-6.076-5.767-8.856-2.78-2.78-5.568-4.489-8.856-5.767C79.572 1.389 75.937.544 70.615.301 65.282.058 63.579 0 50 0zm0 9.009c13.351 0 14.932.051 20.204.292 4.875.222 7.523 1.037 9.285 1.721 2.333.907 3.999 1.991 5.749 3.74 1.749 1.75 2.833 3.416 3.74 5.749.685 1.762 1.499 4.41 1.721 9.285.241 5.272.292 6.853.292 20.204s-.051 14.932-.292 20.204c-.222 4.875-1.036 7.523-1.721 9.285-.907 2.333-1.991 3.999-3.74 5.749-1.75 1.749-3.416 2.833-5.749 3.74-1.762.685-4.41 1.499-9.285 1.721-5.271.241-6.852.292-20.204.292s-14.933-.051-20.204-.292c-4.875-.222-7.523-1.036-9.285-1.721-2.333-.907-3.999-1.991-5.749-3.74-1.749-1.75-2.833-3.416-3.74-5.749-.685-1.762-1.499-4.41-1.722-9.285-.24-5.272-.291-6.853-.291-20.204s.051-14.932.291-20.204c.223-4.875 1.037-7.523 1.722-9.285.907-2.333 1.991-3.999 3.74-5.749 1.75-1.749 3.416-2.833 5.749-3.74 1.762-.684 4.41-1.499 9.285-1.721 5.272-.241 6.853-.292 20.204-.292zm0 15.315C35.82 24.324 24.324 35.82 24.324 50c0 14.18 11.496 25.676 25.676 25.676 14.18 0 25.676-11.496 25.676-25.676 0-14.18-11.496-25.676-25.676-25.676zm0 42.343c-9.205 0-16.667-7.462-16.667-16.667 0-9.205 7.462-16.667 16.667-16.667 9.205 0 16.667 7.462 16.667 16.667 0 9.205-7.462 16.667-16.667 16.667zM82.69 23.31a6 6 0 11-12 0 6 6 0 0112 0z" />
    </symbol>
    <symbol id="uparrow" viewBox="0 0 24 24">
        <path
            d="M13 19V7.83l4.88 4.88c.39.39 1.03.39 1.42 0 .39-.39.39-1.02 0-1.41l-6.59-6.59c-.39-.39-1.02-.39-1.41 0l-6.6 6.58c-.39.39-.39 1.02 0 1.41.39.39 1.02.39 1.41 0L11 7.83V19c0 .55.45 1 1 1s1-.45 1-1z" />
    </symbol>
    <symbol id="light" viewBox="0 0 24 24">
        <path
            d="M12,7c-2.76,0-5,2.24-5,5s2.24,5,5,5s5-2.24,5-5S14.76,7,12,7L12,7z M2,13l2,0c0.55,0,1-0.45,1-1s-0.45-1-1-1l-2,0 c-0.55,0-1,0.45-1,1S1.45,13,2,13z M20,13l2,0c0.55,0,1-0.45,1-1s-0.45-1-1-1l-2,0c-0.55,0-1,0.45-1,1S19.45,13,20,13z M11,2v2 c0,0.55,0.45,1,1,1s1-0.45,1-1V2c0-0.55-0.45-1-1-1S11,1.45,11,2z M11,20v2c0,0.55,0.45,1,1,1s1-0.45,1-1v-2c0-0.55-0.45-1-1-1 C11.45,19,11,19.45,11,20z M5.99,4.58c-0.39-0.39-1.03-0.39-1.41,0c-0.39,0.39-0.39,1.03,0,1.41l1.06,1.06 c0.39,0.39,1.03,0.39,1.41,0s0.39-1.03,0-1.41L5.99,4.58z M18.36,16.95c-0.39-0.39-1.03-0.39-1.41,0c-0.39,0.39-0.39,1.03,0,1.41 l1.06,1.06c0.39,0.39,1.03,0.39,1.41,0c0.39-0.39,0.39-1.03,0-1.41L18.36,16.95z M19.42,5.99c0.39-0.39,0.39-1.03,0-1.41 c-0.39-0.39-1.03-0.39-1.41,0l-1.06,1.06c-0.39,0.39-0.39,1.03,0,1.41s1.03,0.39,1.41,0L19.42,5.99z M7.05,18.36 c0.39-0.39,0.39-1.03,0-1.41c-0.39-0.39-1.03-0.39-1.41,0l-1.06,1.06c-0.39,0.39-0.39,1.03,0,1.41s1.03,0.39,1.41,0L7.05,18.36z" />
    </symbol>
    <symbol id="dark" viewBox="0 0 24 24">
        <path
            d="M11.01,3.05C6.51,3.54,3,7.36,3,12c0,4.97,4.03,9,9,9c4.63,0,8.45-3.5,8.95-8c0.09-0.79-0.78-1.42-1.54-0.95 c-0.84,0.54-1.84,0.85-2.91,0.85c-2.98,0-5.4-2.42-5.4-5.4c0-1.06,0.31-2.06,0.84-2.89C12.39,3.94,11.9,2.98,11.01,3.05z" />
    </symbol>
    <symbol id="email" viewBox="0 0 48 48">
        <path
            d="M7 40q-1.2 0-2.1-.9Q4 38.2 4 37V11q0-1.2.9-2.1Q5.8 8 7 8h34q1.2 0 2.1.9.9.9.9 2.1v26q0 1.2-.9 2.1-.9.9-2.1.9Zm17-15.1L7 13.75V37h34V13.75Zm0-3L40.8 11H7.25ZM7 13.75V11v26Z" />
    </symbol>
    <symbol id="dribbble" viewBox="0 0 100 100">
        <path
            d="M50 0C22.397 0 0 22.397 0 50C0 77.603 22.397 100 50 100C77.5488 100 100 77.603 100 50C100 22.397 77.5488 0 50 0ZM83.026 23.0477C88.9913 30.3145 92.5705 39.5879 92.679 49.6204C91.269 49.3492 77.1692 46.4751 62.961 48.2646C62.6356 47.5597 62.3644 46.8004 62.0391 46.0412C61.1714 43.9805 60.1952 41.8655 59.2191 39.859C74.9458 33.4599 82.1041 24.2408 83.026 23.0477ZM50 7.37527C60.846 7.37527 70.7701 11.4425 78.308 18.1128C77.5488 19.1974 71.0954 27.82 55.9111 33.5141C48.9154 20.6616 41.1605 10.141 39.9675 8.5141C43.167 7.75488 46.5293 7.37527 50 7.37527ZM31.833 11.3883C32.9718 12.9067 40.564 23.4816 47.6681 36.0629C27.7115 41.3774 10.0868 41.269 8.18872 41.269C10.9544 28.0369 19.9024 17.0282 31.833 11.3883ZM7.26681 50.0542C7.26681 49.6204 7.26681 49.1866 7.26681 48.7527C9.11063 48.8069 29.8265 49.0781 51.1388 42.679C52.3861 45.0651 53.5249 47.5054 54.6095 49.9458C54.0672 50.1085 53.4707 50.2712 52.9284 50.4338C30.9111 57.538 19.1974 76.9523 18.2213 78.5792C11.4425 71.0412 7.26681 61.0087 7.26681 50.0542ZM50 92.7332C40.1302 92.7332 31.0195 89.3709 23.8069 83.731C24.5662 82.1584 33.243 65.4555 57.321 57.0499C57.4295 56.9957 57.4837 56.9957 57.5922 56.9414C63.6117 72.5054 66.0521 85.5748 66.7028 89.3167C61.551 91.5401 55.9111 92.7332 50 92.7332ZM73.807 85.4122C73.3731 82.8091 71.0955 70.3362 65.5098 54.9892C78.9046 52.8742 90.6182 56.3449 92.0824 56.833C90.2386 68.7093 83.4056 78.9588 73.807 85.4122Z" />
    </symbol>
    <symbol id="vimeo" viewBox="0 0 100 100">
        <path
            d="M99.951,26.717c-0.446,9.753 -7.244,23.108 -20.395,40.058c-13.596,17.706 -25.098,26.558 -34.509,26.558c-5.827,0 -10.761,-5.389 -14.79,-16.174c-2.691,-9.884 -5.38,-19.768 -8.072,-29.653c-2.992,-10.779 -6.201,-16.175 -9.633,-16.175c-0.748,0 -3.365,1.578 -7.847,4.719l-4.705,-6.073c4.935,-4.344 9.803,-8.688 14.593,-13.039c6.582,-5.698 11.524,-8.695 14.817,-8.998c7.783,-0.749 12.573,4.581 14.371,15.99c1.942,12.311 3.287,19.967 4.043,22.964c2.243,10.213 4.711,15.313 7.408,15.313c2.093,0 5.236,-3.312 9.429,-9.936c4.187,-6.626 6.43,-11.667 6.733,-15.129c0.597,-5.718 -1.647,-8.584 -6.733,-8.584c-2.395,0 -4.863,0.551 -7.402,1.643c4.914,-16.129 14.305,-23.963 28.164,-23.516c10.276,0.303 15.12,6.979 14.528,20.032Z" />
    </symbol>
    <symbol id="linkedin" viewBox="0 0 600 600">
        <path
            d="M511.371,511.367l-90.205,-0l0,-156.513c0,-46.179 -19.633,-60.421 -44.949,-60.421c-26.767,0 -53.005,20.146 -53.005,61.571l0,155.363l-90.204,-0l0,-286.559l86.75,0l0,39.704l1.15,0c8.729,-17.641 39.196,-47.758 85.738,-47.758c50.333,0 104.725,29.854 104.725,117.383l-0,177.23Zm-377.654,-326.484c-28.721,0 -52.005,-21.862 -52.005,-51.779c0,-29.912 23.284,-51.8 52.005,-51.8c28.725,0 52.008,21.888 52.008,51.8c-0,29.917 -23.283,51.779 -52.008,51.779Zm45.1,326.263l-90.2,-0l-0,-286.559l90.2,0l-0,286.559Zm376.891,-511.146l-511.433,0c-24.458,0 -44.292,19.829 -44.292,44.292l0,511.412c0,24.463 19.834,44.292 44.292,44.292l511.433,-0c24.463,-0 44.292,-19.829 44.292,-44.292l-0,-511.412c-0,-24.463 -19.829,-44.292 -44.292,-44.292Z" />
    </symbol>
    <symbol id="menu" viewBox="0 -960 960 960">
        <path
            d="M150-240q-12.75 0-21.375-8.675-8.625-8.676-8.625-21.5 0-12.825 8.625-21.325T150-300h660q12.75 0 21.375 8.675 8.625 8.676 8.625 21.5 0 12.825-8.625 21.325T810-240H150Zm0-210q-12.75 0-21.375-8.675-8.625-8.676-8.625-21.5 0-12.825 8.625-21.325T150-510h660q12.75 0 21.375 8.675 8.625 8.676 8.625 21.5 0 12.825-8.625 21.325T810-450H150Zm0-210q-12.75 0-21.375-8.675-8.625-8.676-8.625-21.5 0-12.825 8.625-21.325T150-720h660q12.75 0 21.375 8.675 8.625 8.676 8.625 21.5 0 12.825-8.625 21.325T810-660H150Z" />
    </symbol>
    <symbol id="misskey" viewBox="0 0 300 300">
        <path
            d="M50.222,57.5c-3.754,-0.015 -7.479,0.636 -11.004,1.928c-6.242,2.197 -11.388,6.149 -15.42,11.839c-3.855,5.506 -5.786,11.651 -5.786,18.439l0,120.584c0,8.808 3.125,16.43 9.361,22.85c6.426,6.242 14.048,9.36 22.849,9.36c8.998,-0 16.613,-3.118 22.856,-9.353c6.426,-6.427 9.631,-14.049 9.631,-22.857l0,-21.925c0.069,-4.748 4.959,-3.5 7.436,0c4.626,8.016 14.443,14.905 25.878,14.864l-0,0.007c11.427,-0.048 20.924,-5.695 25.877,-14.871c1.876,-2.211 7.165,-5.983 7.711,0l-0,21.925c-0,8.808 3.117,16.43 9.353,22.85c6.433,6.242 14.045,9.36 22.853,9.36c8.991,-0 16.613,-3.118 22.855,-9.353c6.427,-6.427 9.633,-14.049 9.633,-22.857l-0,-120.584c-0,-6.788 -2.018,-12.933 -6.051,-18.439c-3.861,-5.696 -8.91,-9.642 -15.145,-11.839c-3.67,-1.289 -7.34,-1.928 -11.011,-1.928c-9.912,0 -18.264,3.854 -25.059,11.564l-32.686,38.252c-0.73,0.553 -3.166,4.76 -8.337,4.76c-5.158,-0 -7.312,-4.207 -8.049,-4.753l-32.968,-38.259c-6.604,-7.71 -14.865,-11.564 -24.777,-11.564Zm203.688,0.004c-7.709,-0 -14.317,2.753 -19.82,8.256c-5.322,5.322 -7.982,11.837 -7.982,19.546c0,7.709 2.66,14.317 7.982,19.821c5.503,5.321 12.111,7.982 19.82,7.982c7.71,-0 14.317,-2.661 19.824,-7.982c5.504,-5.504 8.254,-12.112 8.254,-19.821c-0,-7.709 -2.75,-14.224 -8.254,-19.546c-5.507,-5.503 -12.114,-8.256 -19.824,-8.256Zm0.272,61.115c-7.709,-0 -14.317,2.754 -19.821,8.257c-5.503,5.508 -8.253,12.115 -8.253,19.824l0,67.998c0,7.709 2.75,14.317 8.253,19.82c5.508,5.322 12.117,7.982 19.821,7.982c7.714,-0 14.231,-2.66 19.552,-7.982c5.504,-5.503 8.254,-12.111 8.254,-19.82l-0,-67.998c-0,-7.714 -2.75,-14.321 -8.254,-19.824c-5.325,-5.503 -11.843,-8.257 -19.552,-8.257Z" />
    </symbol>
    <symbol id="visit" viewBox="0 -960 960 960">
        <path
            d="M480.118-330Q551-330 600.5-379.618q49.5-49.617 49.5-120.5Q650-571 600.382-620.5q-49.617-49.5-120.5-49.5Q409-670 359.5-620.382q-49.5 49.617-49.5 120.5Q310-429 359.618-379.5q49.617 49.5 120.5 49.5Zm-.353-58Q433-388 400.5-420.735q-32.5-32.736-32.5-79.5Q368-547 400.735-579.5q32.736-32.5 79.5-32.5Q527-612 559.5-579.265q32.5 32.736 32.5 79.5Q592-453 559.265-420.5q-32.736 32.5-79.5 32.5ZM480-200q-138 0-251.5-75T53.145-473.077Q50-478 48.5-485.174 47-492.348 47-500t1.5-14.826Q50-522 53.145-526.923 115-650 228.5-725T480-800q138 0 251.5 75t175.355 198.077Q910-522 911.5-514.826 913-507.652 913-500t-1.5 14.826q-1.5 7.174-4.645 12.097Q845-350 731.5-275T480-200Z" />
    </symbol>
    <symbol id="love" viewBox="0 -960 960 960">
        <path
            d="m439-156-53-49Q262-320 171-424.5T80-643q0-90 60.5-150.5T290-854q51 0 101 24.5t89 80.5q44-56 91-80.5t99-24.5q89 0 149.5 60.5T880-643q0 114-91 218.5T574-205l-53 49q-17 16-41 16t-41-16Z" />
    </symbol>
    <symbol id="bluesky" viewBox="0 0 568 501">
        <path
            d="M123.121 33.6637C188.241 82.5526 258.281 181.681 284 234.873C309.719 181.681 379.759 82.5526 444.879 33.6637C491.866 -1.61183 568 -28.9064 568 57.9464C568 75.2916 558.055 203.659 552.222 224.501C531.947 296.954 458.067 315.434 392.347 304.249C507.222 323.8 536.444 388.56 473.333 453.32C353.473 576.312 301.061 422.461 287.631 383.039C285.169 375.812 284.017 372.431 284 375.306C283.983 372.431 282.831 375.812 280.369 383.039C266.939 422.461 214.527 576.312 94.6667 453.32C31.5556 388.56 60.7778 323.8 175.653 304.249C109.933 315.434 36.0535 296.954 15.7778 224.501C9.94525 203.659 0 75.2916 0 57.9464C0 -28.9064 76.1345 -1.61183 123.121 33.6637Z" />
    </symbol>
    <symbol id="link" viewBox="0 -960 960 960">
        <path d="M280-280q-83 0-141.5-58.5T80-480q0-83 58.5-141.5T280-680h120q17 0 28.5 11.5T440-640q0 17-11.5 28.5T400-600H280q-50 0-85 35t-35 85q0 50 35 85t85 35h120q17 0 28.5 11.5T440-320q0 17-11.5 28.5T400-280H280Zm80-160q-17 0-28.5-11.5T320-480q0-17 11.5-28.5T360-520h240q17 0 28.5 11.5T640-480q0 17-11.5 28.5T600-440H360Zm200 160q-17 0-28.5-11.5T520-320q0-17 11.5-28.5T560-360h120q50 0 85-35t35-85q0-50-35-85t-85-35H560q-17 0-28.5-11.5T520-640q0-17 11.5-28.5T560-680h120q83 0 141.5 58.5T880-480q0 83-58.5 141.5T680-280H560Z"/>
    </symbol>
</svg>