<?xml version="1.0" encoding="UTF-8" standalone="no"?><!DOCTYPE svg PUBLIC "-//W3C//DTD SVG 1.1//EN" "http://www.w3.org/Graphics/SVG/1.1/DTD/svg11.dtd"><svg width="100%" height="100%" viewBox="0 0 40 40" version="1.1" xmlns="http://www.w3.org/2000/svg" xmlns:xlink="http://www.w3.org/1999/xlink" xml:space="preserve" xmlns:serif="http://www.serif.com/" style="fill-rule:evenodd;clip-rule:evenodd;stroke-linejoin:round;stroke-miterlimit:2;"><rect id="logo" x="0" y="0" width="40" height="40" style="fill:none;"/><clipPath id="_clip1"><rect x="0" y="0" width="40" height="40"/></clipPath><g clip-path="url(#_clip1)"><path d="M8.453,8.453c-3.737,6.464 -2.841,14.88 2.687,20.407c5.531,5.531 13.941,6.429 20.407,2.688l-2.265,8.452l-23.091,-6.191l-6.191,-23.091l8.453,-2.265Zm26.595,-3.501l4.952,-4.952l-7.145,26.667l-3.784,-3.784c-3.301,3.301 -8.653,3.301 -11.954,0c-3.299,-3.299 -3.299,-8.655 0,-11.954c3.301,-3.301 8.653,-3.301 11.954,0l5.977,-5.977l0,0Zm4.952,-4.952l0,0l0,0l0,0Z" style="fill:#5ddbd3;"/></g></svg>