<?xml version="1.0" encoding="UTF-8" standalone="no"?><!DOCTYPE svg PUBLIC "-//W3C//DTD SVG 1.1//EN" "http://www.w3.org/Graphics/SVG/1.1/DTD/svg11.dtd"><svg width="100%" height="100%" viewBox="0 0 40 40" version="1.1" xmlns="http://www.w3.org/2000/svg" xmlns:xlink="http://www.w3.org/1999/xlink" xml:space="preserve" xmlns:serif="http://www.serif.com/" style="fill-rule:evenodd;clip-rule:evenodd;stroke-linejoin:round;stroke-miterlimit:2;"><rect id="twitter" x="0" y="0" width="40" height="40" style="fill:none;"/><clipPath id="_clip1"><rect x="0" y="0" width="40" height="40"/></clipPath><g clip-path="url(#_clip1)"><g><rect x="0" y="0" width="40" height="40" style="fill:#1ca0f1;"/><path id="Logo---FIXED" serif:id="Logo — FIXED" d="M15.362,30.15c9.435,0 14.594,-7.809 14.594,-14.581c0,-0.222 -0.005,-0.443 -0.015,-0.662c1.002,-0.724 1.872,-1.626 2.559,-2.654c-0.919,0.408 -1.908,0.683 -2.946,0.807c1.059,-0.634 1.872,-1.638 2.256,-2.835c-0.991,0.587 -2.089,1.014 -3.257,1.244c-0.936,-0.996 -2.269,-1.619 -3.744,-1.619c-2.833,0 -5.13,2.295 -5.13,5.124c0,0.402 0.045,0.793 0.133,1.169c-4.262,-0.214 -8.043,-2.254 -10.572,-5.355c-0.441,0.758 -0.695,1.638 -0.695,2.576c0,1.778 0.906,3.348 2.283,4.266c-0.841,-0.026 -1.632,-0.257 -2.323,-0.641c-0.001,0.021 -0.001,0.043 -0.001,0.065c0,2.482 1.768,4.554 4.115,5.024c-0.431,0.117 -0.884,0.181 -1.352,0.181c-0.331,0 -0.652,-0.033 -0.965,-0.093c0.653,2.036 2.547,3.518 4.792,3.559c-1.756,1.375 -3.967,2.194 -6.37,2.194c-0.414,0 -0.823,-0.023 -1.224,-0.071c2.27,1.454 4.965,2.302 7.862,2.302" style="fill:#fff;fill-rule:nonzero;"/></g></g></svg>