<?xml version="1.0" encoding="UTF-8" standalone="no"?><!DOCTYPE svg PUBLIC "-//W3C//DTD SVG 1.1//EN" "http://www.w3.org/Graphics/SVG/1.1/DTD/svg11.dtd"><svg width="100%" height="100%" viewBox="0 0 320 320" version="1.1" xmlns="http://www.w3.org/2000/svg" xmlns:xlink="http://www.w3.org/1999/xlink" xml:space="preserve" xmlns:serif="http://www.serif.com/" style="fill-rule:evenodd;clip-rule:evenodd;stroke-linejoin:round;stroke-miterlimit:2;"><rect id="github" x="0" y="0" width="320" height="320" style="fill:none;"/><clipPath id="_clip1"><rect x="0" y="0" width="320" height="320"/></clipPath><g clip-path="url(#_clip1)"><rect x="0" y="0" width="320" height="320" style="fill:#181717;"/><path d="M239.996,37.086c-24.294,0 -43.996,19.699 -43.996,44.004c0,19.437 12.606,35.93 30.091,41.749c2.201,0.402 3.003,-0.957 3.003,-2.121c0,-1.045 -0.038,-3.811 -0.059,-7.485c-12.239,2.661 -14.821,-5.896 -14.821,-5.896c-2.002,-5.084 -4.887,-6.437 -4.887,-6.437c-3.995,-2.731 0.303,-2.674 0.303,-2.674c4.416,0.311 6.739,4.533 6.739,4.533c3.925,6.725 10.3,4.783 12.806,3.657c0.4,-2.844 1.537,-4.784 2.793,-5.883c-9.77,-1.11 -20.042,-4.887 -20.042,-21.747c0,-4.803 1.715,-8.73 4.53,-11.807c-0.454,-1.113 -1.964,-5.586 0.432,-11.644c0,0 3.692,-1.183 12.098,4.511c3.509,-0.975 7.274,-1.464 11.015,-1.48c3.739,0.016 7.501,0.505 11.016,1.48c8.4,-5.694 12.087,-4.511 12.087,-4.511c2.401,6.058 0.891,10.531 0.44,11.644c2.82,3.077 4.522,7.004 4.522,11.807c0,16.904 -10.289,20.623 -20.088,21.712c1.577,1.358 2.985,4.043 2.985,8.149c0,5.883 -0.055,10.629 -0.055,12.071c0,1.175 0.795,2.545 3.026,2.115c17.471,-5.829 30.066,-22.311 30.066,-41.743c0,-24.305 -19.702,-44.004 -44.004,-44.004Z" style="fill:#fff;"/></g></svg>