<?xml version="1.0" encoding="UTF-8" standalone="no"?><!DOCTYPE svg PUBLIC "-//W3C//DTD SVG 1.1//EN" "http://www.w3.org/Graphics/SVG/1.1/DTD/svg11.dtd"><svg width="100%" height="100%" viewBox="0 0 320 320" version="1.1" xmlns="http://www.w3.org/2000/svg" xmlns:xlink="http://www.w3.org/1999/xlink" xml:space="preserve" xmlns:serif="http://www.serif.com/" style="fill-rule:evenodd;clip-rule:evenodd;stroke-linejoin:round;stroke-miterlimit:2;"><rect id="pinterest" x="0" y="0" width="320" height="320" style="fill:none;"/><rect x="0" y="0" width="320" height="320" style="fill:#e60019;"/><path d="M240.036,35.928c-24.319,0 -44.036,19.716 -44.036,44.036c0,18.665 11.598,34.613 27.98,41.028c-0.399,-3.48 -0.725,-8.844 0.145,-12.649c0.798,-3.444 5.147,-21.892 5.147,-21.892c0,0 -1.305,-2.645 -1.305,-6.523c0,-6.126 3.552,-10.692 7.974,-10.692c3.769,0 5.581,2.827 5.581,6.197c0,3.77 -2.392,9.424 -3.66,14.679c-1.052,4.385 2.21,7.974 6.523,7.974c7.829,0 13.846,-8.264 13.846,-20.152c0,-10.547 -7.575,-17.904 -18.412,-17.904c-12.541,0 -19.898,9.387 -19.898,19.1c0,3.769 1.45,7.829 3.262,10.04c0.362,0.435 0.398,0.833 0.29,1.268c-0.326,1.377 -1.088,4.386 -1.233,5.002c-0.181,0.797 -0.652,0.978 -1.486,0.58c-5.509,-2.574 -8.952,-10.583 -8.952,-17.071c0,-13.881 10.076,-26.639 29.104,-26.639c15.259,0 27.147,10.873 27.147,25.443c0,15.186 -9.569,27.4 -22.834,27.4c-4.458,0 -8.662,-2.319 -10.076,-5.074c0,0 -2.211,8.409 -2.754,10.474c-0.979,3.842 -3.661,8.626 -5.473,11.562c4.132,1.269 8.481,1.957 13.048,1.957c24.319,0 44.036,-19.716 44.036,-44.036c0.072,-24.392 -19.644,-44.108 -43.964,-44.108Z" style="fill:#fff;fill-rule:nonzero;"/></svg>