<?xml version="1.0" encoding="UTF-8" standalone="no"?><!DOCTYPE svg PUBLIC "-//W3C//DTD SVG 1.1//EN" "http://www.w3.org/Graphics/SVG/1.1/DTD/svg11.dtd"><svg width="100%" height="100%" viewBox="0 0 320 320" version="1.1" xmlns="http://www.w3.org/2000/svg" xmlns:xlink="http://www.w3.org/1999/xlink" xml:space="preserve" xmlns:serif="http://www.serif.com/" style="fill-rule:evenodd;clip-rule:evenodd;stroke-linejoin:round;stroke-miterlimit:2;"><rect id="pixiv" x="0" y="0" width="320" height="320" style="fill:none;"/><clipPath id="_clip1"><rect x="0" y="0" width="320" height="320"/></clipPath><g clip-path="url(#_clip1)"><rect x="0" y="0" width="320" height="320" style="fill:#0096fa;"/><path d="M200,64.43l5.108,8.108c0,0 2.826,0.237 1.329,-4.539c1.292,-2.441 3.821,-5.727 8.758,-9.521l0,54.016c-2.128,0.6 -4.941,1.728 -3.023,3.649l14.672,0c1.936,-1.939 -1.114,-3.106 -2.974,-3.649l0,-12.743c0,0 10.06,3.949 20.905,3.949c9.528,0 18.198,-2.835 24.646,-7.957c6.449,-5.094 10.603,-12.696 10.579,-21.389c0.018,-8.534 -3.633,-16.365 -9.92,-21.837c-6.283,-5.491 -15.08,-8.66 -25.305,-8.66c-26.649,0 -44.775,20.573 -44.775,20.573Zm23.87,30.335l0,-11.606l0,-28.917c5.09,-3.618 13.343,-5.845 20.01,-5.832c8.097,0.006 14.456,3.066 18.755,7.711c4.294,4.673 6.637,10.88 6.659,18.097c-0.027,7.03 -2.532,12.82 -6.991,17.262c-4.459,4.404 -10.943,7.188 -18.423,7.183l-0.039,0c-8.328,0 -15.338,-1.615 -19.971,-3.898Z" style="fill:#fff;fill-rule:nonzero;"/></g></svg>