<?xml version="1.0" encoding="UTF-8" standalone="no"?><!DOCTYPE svg PUBLIC "-//W3C//DTD SVG 1.1//EN" "http://www.w3.org/Graphics/SVG/1.1/DTD/svg11.dtd"><svg width="100%" height="100%" viewBox="0 0 320 320" version="1.1" xmlns="http://www.w3.org/2000/svg" xmlns:xlink="http://www.w3.org/1999/xlink" xml:space="preserve" xmlns:serif="http://www.serif.com/" style="fill-rule:evenodd;clip-rule:evenodd;stroke-linejoin:round;stroke-miterlimit:2;"><rect id="unity" x="0" y="0" width="320" height="320" style="fill:none;"/><clipPath id="_clip1"><rect x="0" y="0" width="320" height="320"/></clipPath><g clip-path="url(#_clip1)"><rect x="0" y="0" width="320" height="320"/><path d="M266.217,104.261l-14.295,-24.069l14.295,-24.079l6.902,24.079l-6.902,24.069Zm-31.86,-2.309l-17.981,-17.851l28.585,0l14.29,24.073l-24.894,-6.222Zm0,-43.526l24.894,-6.222l-14.29,24.074l-28.585,0l17.981,-17.852Zm36.576,-18.075l-32.544,8.48l-4.816,8.266l-9.774,-0.072l-23.822,23.167l23.822,23.161l9.769,-0.071l4.827,8.261l32.538,8.48l8.717,-31.637l-4.953,-8.194l4.953,-8.194l-8.717,-31.647Z" style="fill:#fff;fill-rule:nonzero;"/></g></svg>