<?xml version="1.0" encoding="UTF-8" standalone="no"?><!DOCTYPE svg PUBLIC "-//W3C//DTD SVG 1.1//EN" "http://www.w3.org/Graphics/SVG/1.1/DTD/svg11.dtd"><svg width="100%" height="100%" viewBox="0 0 320 320" version="1.1" xmlns="http://www.w3.org/2000/svg" xmlns:xlink="http://www.w3.org/1999/xlink" xml:space="preserve" xmlns:serif="http://www.serif.com/" style="fill-rule:evenodd;clip-rule:evenodd;stroke-linejoin:round;stroke-miterlimit:2;"><rect id="youtube" x="0" y="0" width="320" height="320" style="fill:none;"/><clipPath id="_clip1"><rect x="0" y="0" width="320" height="320"/></clipPath><g clip-path="url(#_clip1)"><rect x="0" y="0" width="320" height="320" style="fill:#ed1f24;"/><path d="M285.994,56.743c-1.104,-4.156 -4.357,-7.431 -8.487,-8.542c-7.487,-2.019 -37.507,-2.019 -37.507,-2.019c0,0 -30.02,0 -37.507,2.019c-4.13,1.111 -7.383,4.386 -8.487,8.542c-2.006,7.536 -2.006,23.257 -2.006,23.257c0,0 0,15.722 2.006,23.257c1.104,4.157 4.357,7.431 8.487,8.542c7.487,2.019 37.507,2.019 37.507,2.019c0,0 30.02,0 37.507,-2.019c4.13,-1.111 7.383,-4.385 8.487,-8.542c2.006,-7.535 2.006,-23.257 2.006,-23.257c0,0 0,-15.721 -2.006,-23.257Z" style="fill:#fff;fill-rule:nonzero;"/><path d="M230.182,94.274l25.091,-14.273l-25.091,-14.274l0,28.547Z" style="fill:#ed1f24;fill-rule:nonzero;"/></g></svg>