<?xml version="1.0" encoding="UTF-8" standalone="no"?><!DOCTYPE svg PUBLIC "-//W3C//DTD SVG 1.1//EN" "http://www.w3.org/Graphics/SVG/1.1/DTD/svg11.dtd"><svg width="100%" height="100%" viewBox="0 0 500 500" version="1.1" xmlns="http://www.w3.org/2000/svg" xmlns:xlink="http://www.w3.org/1999/xlink" xml:space="preserve" xmlns:serif="http://www.serif.com/" style="fill-rule:evenodd;clip-rule:evenodd;stroke-linejoin:round;stroke-miterlimit:2;"><rect id="Artboard2" x="0" y="0" width="500" height="500" style="fill:none;"/><path d="M113.397,113.398c-44.214,76.474 -33.605,176.032 31.784,241.421c65.433,65.432 164.924,76.049 241.417,31.8l-26.79,99.984l-273.166,-73.245l-73.245,-273.166l100,-26.794Zm314.627,-41.422l58.579,-58.579l-84.53,315.471l-44.76,-44.76c-39.052,39.053 -102.369,39.053 -141.421,0c-39.026,-39.026 -39.026,-102.395 0,-141.421c39.052,-39.053 102.369,-39.053 141.421,0l70.711,-70.711l0,0Zm58.579,-58.579l0,0l0,0l0,0Z" style="fill:#2ee6d6;"/></svg>