<?xml version="1.0" encoding="UTF-8" standalone="no"?><!DOCTYPE svg PUBLIC "-//W3C//DTD SVG 1.1//EN" "http://www.w3.org/Graphics/SVG/1.1/DTD/svg11.dtd"><svg width="100%" height="100%" viewBox="0 0 400 400" version="1.1" xmlns="http://www.w3.org/2000/svg" xmlns:xlink="http://www.w3.org/1999/xlink" xml:space="preserve" xmlns:serif="http://www.serif.com/" style="fill-rule:evenodd;clip-rule:evenodd;stroke-linejoin:round;stroke-miterlimit:1.41421;"><rect id="Artboard4" x="0" y="0" width="400" height="400" style="fill:none;"/><clipPath id="_clip1"><rect x="0" y="0" width="400" height="400"/></clipPath><g clip-path="url(#_clip1)"><g><path d="M354.826,73.458c28.229,34.472 45.174,78.544 45.174,126.542c0,110.383 -89.617,200 -200,200c-55.192,0 -105.192,-22.404 -141.394,-58.606l14.14,-14.14c32.582,32.582 77.582,52.746 127.254,52.746c99.345,0 180,-80.655 180,-180c0,-42.472 -14.742,-81.529 -39.395,-112.321l14.221,-14.221Zm-309.652,253.084c-28.229,-34.472 -45.174,-78.544 -45.174,-126.542c0,-110.383 89.617,-200 200,-200c46.575,0 89.452,15.955 123.455,42.687l-24.95,6.685c-28.295,-18.57 -62.148,-29.372 -98.505,-29.372c-99.345,0 -180,80.655 -180,180c0,42.472 14.742,81.529 39.395,112.321l-14.221,14.221Z" style="fill:#fff;"/><path d="M273.395,126.605l-20.362,20.362c-14.065,-14.065 -33.142,-21.967 -53.033,-21.967c-41.394,0 -75,33.606 -75,75c0,41.394 33.606,75 75,75c19.891,0 38.968,-7.902 53.033,-21.967l53.033,53.033c-28.13,28.13 -66.284,43.934 -106.066,43.934c-82.787,0 -150,-67.213 -150,-150c0,-82.787 67.213,-150 150,-150c29.383,0 57.877,8.621 82.078,24.48l59.343,-15.901l-68.026,68.026l0,0Z" style="fill:#fff;"/></g></g></svg>