<?xml version="1.0" encoding="UTF-8" standalone="no"?><!DOCTYPE svg PUBLIC "-//W3C//DTD SVG 1.1//EN" "http://www.w3.org/Graphics/SVG/1.1/DTD/svg11.dtd"><svg width="100%" height="100%" viewBox="0 0 1920 1080" version="1.1" xmlns="http://www.w3.org/2000/svg" xmlns:xlink="http://www.w3.org/1999/xlink" xml:space="preserve" xmlns:serif="http://www.serif.com/" style="fill-rule:evenodd;clip-rule:evenodd;stroke-linejoin:round;stroke-miterlimit:1.41421;"><rect id="title" x="0" y="0" width="1920" height="1080" style="fill:none;"/><clipPath id="_clip1"><rect x="0" y="0" width="1920" height="1080"/></clipPath><g clip-path="url(#_clip1)"><rect x="0.021" y="0" width="1920" height="1080" style="fill:#5ddbd3;"/><g opacity="0.4"><path d="M760.021,340.021c110.383,0 200,89.617 200,200c0,110.383 -89.617,200 -200,200c-110.383,0 -200,-89.617 -200,-200c0,-110.383 89.617,-200 200,-200Zm0,20c99.344,0 180,80.655 180,180c0,99.344 -80.656,180 -180,180c-99.345,0 -180,-80.656 -180,-180c0,-99.345 80.655,-180 180,-180Z" style="fill:#fff;"/><path d="M760.021,390.021c82.787,0 150,67.212 150,150c0,82.787 -67.213,150 -150,150c-82.788,0 -150,-67.213 -150,-150c0,-82.788 67.212,-150 150,-150Zm0,75c41.393,0 75,33.606 75,75c0,41.393 -33.607,75 -75,75c-41.394,0 -75,-33.607 -75,-75c0,-41.394 33.606,-75 75,-75Z" style="fill:#fff;"/></g><circle cx="1160.02" cy="540.021" r="200" style="fill:#5ddbd3;fill-opacity:0.4;"/><path d="M1213.04,486.998c-13.615,-13.593 -32.347,-21.977 -53.022,-21.977c-41.394,0 -75,33.606 -75,75c0,41.393 33.606,75 75,75c20.697,0 39.447,-8.402 53.022,-21.978l88.399,88.399c-37.507,37.507 -88.378,58.579 -141.421,58.579c-110.383,0 -200,-89.617 -200,-200c0,-110.383 89.617,-200 200,-200c53.043,0 103.914,21.071 141.421,58.578l-88.388,88.389c14.082,14.105 21.967,33.163 21.967,53.033c0,19.891 -7.902,38.968 -21.967,53.033l-53.033,-53.033l53.022,-53.023Z" style="fill:#fff;fill-opacity:0.4;"/><path d="M1366.84,488.256l295.966,-79.304l-257.644,257.645c-41.718,-50.938 -54.492,-117.711 -38.322,-178.341Zm348.042,-74.811c64.321,78.538 59.837,194.721 -13.439,267.997c-73.276,73.276 -189.459,77.76 -267.997,13.439l281.436,-281.436Zm-31.366,-30.748l-309.126,82.83c9.751,-24.377 24.489,-47.206 44.21,-66.928c72.328,-72.327 186.46,-77.632 264.916,-15.902Zm17.927,15.902c0,0 0,0 0,0Z" style="fill:#fff;fill-opacity:0.4;"/><g><path d="M514.847,413.437c28.229,34.472 45.174,78.544 45.174,126.542c0,110.383 -89.617,200 -200,200c-55.192,0 -105.192,-22.404 -141.394,-58.606l14.139,-14.139c32.582,32.581 77.582,52.745 127.255,52.745c99.344,0 180,-80.655 180,-180c0,-42.472 -14.742,-81.528 -39.395,-112.321l14.221,-14.221Zm-309.652,253.084c-28.229,-34.472 -45.174,-78.544 -45.174,-126.542c0,-110.383 89.617,-200 200,-200c46.574,0 89.452,15.955 123.455,42.687l-24.95,6.686c-28.295,-18.571 -62.149,-29.373 -98.505,-29.373c-99.345,0 -180,80.656 -180,180c0,42.473 14.742,81.529 39.394,112.321l-14.22,14.221Z" style="fill:#fff;"/><path d="M433.416,466.584l-20.362,20.362c-14.065,-14.065 -33.142,-21.967 -53.033,-21.967c-41.394,0 -75,33.607 -75,75c0,41.394 33.606,75 75,75c19.891,0 38.968,-7.901 53.033,-21.967l53.033,53.033c-28.131,28.131 -66.284,43.934 -106.066,43.934c-82.788,0 -150,-67.212 -150,-150c0,-82.787 67.212,-150 150,-150c29.383,0 57.877,8.621 82.077,24.48l59.344,-15.901l-68.026,68.026l0,0Z" style="fill:#fff;"/></g><g transform="matrix(1,0,0,1,-207.443,111.997)"><path d="M865.719,338.296l23.31,0l0,-81.792l32.256,0l0,-18.99l-87.822,0l0,18.99l32.256,0l0,81.792Z" style="fill:#fff;fill-rule:nonzero;"/><path d="M1002.95,237.514l0,39.744l-45.81,0l0,-39.744l-23.31,0l0,100.782l23.31,0l0,-41.328l45.81,0l0,41.328l23.31,0l0,-100.782l-23.31,0Z" style="fill:#fff;fill-rule:nonzero;"/><path d="M1073.35,319.594l0,-23.346l46.8,0l0,-18.126l-46.8,0l0,-21.906l52.992,0l0,-18.702l-76.158,0l0,100.782l78.03,0l0,-18.702l-54.864,0Z" style="fill:#fff;fill-rule:nonzero;"/><path d="M913.797,482.296l27.216,0l-44.208,-55.862l41.76,-44.92l-25.92,0l-44.64,47.08l0,-47.08l-23.166,0l0,100.782l23.166,0l0,-25.483l13.536,-14.11l32.256,39.593Z" style="fill:#fff;fill-rule:nonzero;"/><path d="M1020.81,381.514l0,61.189l-50.127,-61.189l-19.281,0l0,100.782l23.022,0l0,-61.189l50.271,61.189l19.137,0l0,-100.782l-23.022,0Z" style="fill:#fff;fill-rule:nonzero;"/><path d="M1116.56,484.024c31.688,0 55.142,-22.014 55.142,-52.119c0,-30.104 -23.454,-52.119 -55.142,-52.119c-31.833,0 -55.144,22.159 -55.144,52.119c0,29.96 23.311,52.119 55.144,52.119Zm0,-19.854c-18.006,0 -31.546,-13.108 -31.546,-32.265c0,-19.157 13.54,-32.265 31.546,-32.265c18.005,0 31.544,13.108 31.544,32.265c0,19.157 -13.539,32.265 -31.544,32.265Z" style="fill:#fff;fill-rule:nonzero;"/><path d="M1315.99,381.514l-23.47,71.411l-23.037,-71.411l-21.598,0l-23.758,70.836l-22.749,-70.836l-24.19,0l33.117,100.782l24.909,0l22.894,-68.243l22.173,68.243l25.054,0l32.971,-100.782l-22.316,0Z" style="fill:#fff;fill-rule:nonzero;"/><path d="M1351.29,482.296l73.854,0l0,-18.99l-50.544,0l0,-81.792l-23.31,0l0,100.782Z" style="fill:#fff;fill-rule:nonzero;"/><path d="M1461.43,463.594l0,-23.346l46.8,0l0,-18.126l-46.8,0l0,-21.906l52.992,0l0,-18.702l-76.158,0l0,100.782l78.03,0l0,-18.702l-54.864,0Z" style="fill:#fff;fill-rule:nonzero;"/><path d="M1534.89,482.296l45.782,0c32.986,0 55.576,-19.854 55.576,-50.391c0,-30.537 -22.59,-50.391 -55.576,-50.391l-45.782,0l0,100.782Zm23.31,-19.134l0,-62.514l21.32,0c20.022,0 33.13,11.955 33.13,31.257c0,19.302 -13.108,31.257 -33.13,31.257l-21.32,0Z" style="fill:#fff;fill-rule:nonzero;"/><path d="M1721.94,459.849c-5.906,3.169 -11.812,4.321 -18.15,4.321c-19.303,0 -32.7,-13.396 -32.7,-32.265c0,-19.157 13.397,-32.265 32.988,-32.265c10.228,0 18.726,3.601 26.064,11.38l14.964,-13.81c-9.785,-11.381 -24.462,-17.424 -42.18,-17.424c-32.123,0 -55.434,21.727 -55.434,52.119c0,30.393 23.311,52.119 55.001,52.119c14.406,0 29.663,-4.46 40.741,-12.804l0,-40.899l-21.294,0l0,29.528Z" style="fill:#fff;fill-rule:nonzero;"/><path d="M1788.02,463.594l0,-23.346l46.8,0l0,-18.126l-46.8,0l0,-21.906l52.992,0l0,-18.702l-76.158,0l0,100.782l78.03,0l0,-18.702l-54.864,0Z" style="fill:#fff;fill-rule:nonzero;"/><path d="M920.997,544.216l0,-18.702l-76.158,0l0,100.782l23.31,0l0,-36.72l46.656,0l0,-18.702l-46.656,0l0,-26.658l52.848,0Z" style="fill:#fff;fill-rule:nonzero;"/><path d="M984.655,628.024c31.688,0 55.142,-22.014 55.142,-52.119c0,-30.104 -23.454,-52.119 -55.142,-52.119c-31.833,0 -55.144,22.159 -55.144,52.119c0,29.96 23.311,52.119 55.144,52.119Zm0,-19.854c-18.006,0 -31.546,-13.108 -31.546,-32.265c0,-19.157 13.54,-32.265 31.546,-32.265c18.005,0 31.544,13.108 31.544,32.265c0,19.157 -13.539,32.265 -31.544,32.265Z" style="fill:#fff;fill-rule:nonzero;"/><path d="M1146.64,626.296l-22.592,-32.396c13.094,-5.61 20.72,-16.691 20.72,-31.819c0,-22.612 -16.835,-36.567 -43.767,-36.567l-43.623,0l0,100.782l23.31,0l0,-28.08l21.466,0l19.448,28.08l25.038,0Zm-25.47,-64.215c0,10.95 -7.203,17.577 -21.465,17.577l-19.017,0l0,-35.154l19.017,0c14.262,0 21.465,6.483 21.465,17.577Z" style="fill:#fff;fill-rule:nonzero;"/><path d="M1248.75,628.024c28.661,0 45.639,-16.401 45.639,-46.062l0,-56.448l-23.022,0l0,55.584c0,19.152 -8.211,27.072 -22.473,27.072c-14.117,0 -22.473,-7.92 -22.473,-27.072l0,-55.584l-23.31,0l0,56.448c0,29.661 16.979,46.062 45.639,46.062Z" style="fill:#fff;fill-rule:nonzero;"/><path d="M1350.56,628.024c28.803,0 42.76,-14.386 42.76,-31.224c0,-36.989 -58.608,-24.164 -58.608,-42.763c0,-6.352 5.331,-11.549 19.162,-11.549c8.933,0 18.583,2.599 27.935,7.94l7.195,-17.722c-9.353,-5.899 -22.307,-8.92 -34.986,-8.92c-28.658,0 -42.472,14.242 -42.472,31.406c0,37.433 58.608,24.487 58.608,43.335c0,6.189 -5.619,10.795 -19.449,10.795c-12.103,0 -24.77,-4.318 -33.259,-10.507l-7.916,17.556c8.923,6.906 25.039,11.653 41.03,11.653Z" style="fill:#fff;fill-rule:nonzero;"/></g><path d="M910.021,891.804l5,0l45,45l45,-45l5,0l-50,50l-50,-50Z" style="fill:#fff;"/></g></svg>