<?xml version="1.0" encoding="UTF-8" standalone="no"?><!DOCTYPE svg PUBLIC "-//W3C//DTD SVG 1.1//EN" "http://www.w3.org/Graphics/SVG/1.1/DTD/svg11.dtd"><svg width="100%" height="100%" viewBox="0 0 1920 1080" version="1.1" xmlns="http://www.w3.org/2000/svg" xmlns:xlink="http://www.w3.org/1999/xlink" xml:space="preserve" xmlns:serif="http://www.serif.com/" style="fill-rule:evenodd;clip-rule:evenodd;stroke-linejoin:round;stroke-miterlimit:1.41421;"><rect id="title" x="0" y="0" width="1920" height="1080" style="fill:none;"/><clipPath id="_clip1"><rect x="0" y="0" width="1920" height="1080"/></clipPath><g clip-path="url(#_clip1)"><rect x="0.021" y="0" width="1920" height="1080" style="fill:#5ddbd3;"/><g opacity="0.4"><path d="M760.021,340.021c110.383,0 200,89.617 200,200c0,110.383 -89.617,200 -200,200c-110.383,0 -200,-89.617 -200,-200c0,-110.383 89.617,-200 200,-200Zm0,20c99.344,0 180,80.655 180,180c0,99.344 -80.656,180 -180,180c-99.345,0 -180,-80.656 -180,-180c0,-99.345 80.655,-180 180,-180Z" style="fill:#fff;"/><path d="M760.021,390.021c82.787,0 150,67.212 150,150c0,82.787 -67.213,150 -150,150c-82.788,0 -150,-67.213 -150,-150c0,-82.788 67.212,-150 150,-150Zm0,75c41.393,0 75,33.606 75,75c0,41.393 -33.607,75 -75,75c-41.394,0 -75,-33.607 -75,-75c0,-41.394 33.606,-75 75,-75Z" style="fill:#fff;"/></g><circle cx="1160.02" cy="540.021" r="200" style="fill:#5ddbd3;fill-opacity:0.4;"/><path d="M1213.04,486.998c-13.615,-13.593 -32.347,-21.977 -53.022,-21.977c-41.394,0 -75,33.606 -75,75c0,41.393 33.606,75 75,75c20.697,0 39.447,-8.402 53.022,-21.978l88.399,88.399c-37.507,37.507 -88.378,58.579 -141.421,58.579c-110.383,0 -200,-89.617 -200,-200c0,-110.383 89.617,-200 200,-200c53.043,0 103.914,21.071 141.421,58.578l-88.388,88.389c14.082,14.105 21.967,33.163 21.967,53.033c0,19.891 -7.902,38.968 -21.967,53.033l-53.033,-53.033l53.022,-53.023Z" style="fill:#fff;fill-opacity:0.4;"/><path d="M1366.84,488.256l295.966,-79.304l-257.644,257.645c-41.718,-50.938 -54.492,-117.711 -38.322,-178.341Zm348.042,-74.811c64.321,78.538 59.837,194.721 -13.439,267.997c-73.276,73.276 -189.459,77.76 -267.997,13.439l281.436,-281.436Zm-31.366,-30.748l-309.126,82.83c9.751,-24.377 24.489,-47.206 44.21,-66.928c72.328,-72.327 186.46,-77.632 264.916,-15.902Zm17.927,15.902c0,0 0,0 0,0Z" style="fill:#fff;fill-opacity:0.4;"/><g><path d="M514.847,413.437c28.229,34.472 45.174,78.544 45.174,126.542c0,110.383 -89.617,200 -200,200c-55.192,0 -105.192,-22.404 -141.394,-58.606l14.139,-14.139c32.582,32.581 77.582,52.745 127.255,52.745c99.344,0 180,-80.655 180,-180c0,-42.472 -14.742,-81.528 -39.395,-112.321l14.221,-14.221Zm-309.652,253.084c-28.229,-34.472 -45.174,-78.544 -45.174,-126.542c0,-110.383 89.617,-200 200,-200c46.574,0 89.452,15.955 123.455,42.687l-24.95,6.686c-28.295,-18.571 -62.149,-29.373 -98.505,-29.373c-99.345,0 -180,80.656 -180,180c0,42.473 14.742,81.529 39.394,112.321l-14.22,14.221Z" style="fill:#fff;"/><path d="M433.416,466.584l-20.362,20.362c-14.065,-14.065 -33.142,-21.967 -53.033,-21.967c-41.394,0 -75,33.607 -75,75c0,41.394 33.606,75 75,75c19.891,0 38.968,-7.901 53.033,-21.967l53.033,53.033c-28.131,28.131 -66.284,43.934 -106.066,43.934c-82.788,0 -150,-67.212 -150,-150c0,-82.787 67.212,-150 150,-150c29.383,0 57.877,8.621 82.077,24.48l59.344,-15.901l-68.026,68.026l0,0Z" style="fill:#fff;"/></g><g transform="matrix(1,0,0,1,-207.443,111.997)"><text x="832.878px" y="338.305px" style="font-family:'Montserrat-Bold', 'Montserrat';font-weight:700;font-size:144px;fill:#fff;">THE</text><text x="832.878px" y="482.305px" style="font-family:'Montserrat-Bold', 'Montserrat';font-weight:700;font-size:144px;fill:#fff;">KNO<tspan x="1174.01px 1339.33px " y="482.305px 482.305px ">WL</tspan>EDGE</text><text x="832.878px" y="626.305px" style="font-family:'Montserrat-Bold', 'Montserrat';font-weight:700;font-size:144px;fill:#fff;">F<tspan x="923.886px " y="626.305px ">O</tspan>R US</text></g><path d="M910.021,891.804l5,0l45,45l45,-45l5,0l-50,50l-50,-50Z" style="fill:#fff;"/></g></svg>